<?xml version="1.0" standalone="no"?>
<!DOCTYPE svg PUBLIC "-//W3C//DTD SVG 1.1//EN" "http://www.w3.org/Graphics/SVG/1.1/DTD/svg11.dtd" >
<!--
2013-9-30: Created.
-->
<svg>
<metadata>
Created by iconfont
</metadata>
<defs>

<font id="iconfont" horiz-adv-x="1024" >
  <font-face
    font-family="iconfont"
    font-weight="500"
    font-stretch="normal"
    units-per-em="1024"
    ascent="896"
    descent="-128"
  />
    <missing-glyph />
    
    <glyph glyph-name="40" unicode="&#58994;" d="M513.6-128c-134.4 0-262.4 51.2-364.8 147.2-198.4 198.4-198.4 524.8 0 723.2C251.2 844.8 379.2 896 513.6 896s262.4-51.2 364.8-147.2c198.4-198.4 198.4-524.8 0-723.2C776-76.8 648-128 513.6-128zM513.6 832C392 832 283.2 787.2 200 697.6c-172.8-172.8-172.8-460.8 0-633.6C283.2-19.2 392-64 513.6-64s230.4 44.8 313.6 134.4c172.8 172.8 172.8 460.8 0 633.6C744 787.2 635.2 832 513.6 832zM513.6 115.2c-19.2 0-32 12.8-32 32L481.6 627.2C481.6 640 494.4 652.8 513.6 652.8S545.6 640 545.6 627.2l0-480C545.6 128 532.8 115.2 513.6 115.2zM756.8 352 270.4 352C257.6 352 244.8 364.8 244.8 384S257.6 416 270.4 416l480 0c19.2 0 32-12.8 32-32S769.6 352 756.8 352z"  horiz-adv-x="1028" />

    
    <glyph glyph-name="xiazai14" unicode="&#58995;" d="M790.24 614.24l1.248-604.192c0-31.712-13.088-48.672-44.896-48.672l-461.504 1.28c-31.776 0-45.792 14.496-45.792 46.144l0 605.44-71.52 0 0-605.728c0-63.552 51.712-115.2 115.232-115.2l460.8 0c63.552 0 115.232 51.68 115.232 115.2l0 605.728-68.864 0zM335.744 484.608l0-428.928c0-2.784 0.416-5.472 1.12-8.032 21.088 0 42.208 0.032 63.328 0.192 0.672 2.464 1.088 5.152 1.088 7.84l0 428.736c-21.856 0.096-43.68 0.16-65.536 0.192l0 0zM624.992 483.072l0-427.424c0-2.208 0.256-4.384 0.704-6.496 21.344 0.128 42.72 0.16 64.032 0.224 0.448 2.048 0.672 4.096 0.672 6.336l0 427.168c-21.792 0.032-43.616 0.096-65.408 0.192l0 0zM978.912 730.336l-255.904 0 0 72.192c1.12 58.112-46.752 72.128-94.528 72.128l-229.952 0c-59.36 0-93.216-22.304-93.216-70.112l-0.256-74.208-259.968 0 0-70.496 933.792 0 0 70.496 0.032 0zM657.504 730.336l-288.032 0 0 50.496c0 16 11.296 29.92 27.296 29.92l230.432-1.248c16 0 30.08-11.488 30.08-27.488l0.224-51.68zM482.688 483.04l0-427.36c0-2.208 0.256-4.416 0.704-6.496 21.152 0.096 42.304 0.16 63.456 0.16 0.448 2.08 0.672 4.096 0.672 6.336l0 427.168c-21.632 0.032-43.232 0.096-64.864 0.192l0 0z"  horiz-adv-x="1024" />

    
    <glyph glyph-name="xiugaimima" unicode="&#58996;" d="M355.71712 337.03936c-0.512-0.65536-1.04448-1.37216-1.26976-2.23232l-40.18176-148.41856c-2.33472-8.64256 0.06144-17.98144 6.41024-24.53504 4.75136-4.64896 11.01824-7.22944 17.67424-7.22944 2.21184 0 4.42368 0.26624 6.59456 0.86016l146.30912 40.18176c0.22528 0 0.32768-0.22528 0.49152-0.22528 1.69984 0 3.33824 0.63488 4.58752 1.92512l391.168 394.0352c11.63264 11.71456 18.00192 27.68896 18.00192 45.056 0 19.6608-8.2944 39.36256-22.79424 53.94432l-36.94592 37.2736c-14.49984 14.62272-34.05824 22.97856-53.5552 22.97856-17.24416 0-33.0752-6.41024-44.76928-18.10432L356.29056 338.39104C355.88096 338.0224 356.02432 337.46944 355.71712 337.03936L355.71712 337.03936zM849.22368 630.00576l-38.85056-39.1168-62.99648 64.47104 38.31808 38.56384c6.0416 6.12352 17.8176 5.24288 24.73984-1.76128l36.94592-37.29408c3.87072-3.91168 6.08256-9.05216 6.08256-14.15168C853.44256 636.5184 851.92704 632.7296 849.22368 630.00576L849.22368 630.00576zM425.28768 330.83392l282.25536 284.40576 62.99648-64.53248L488.83712 266.89536 425.28768 330.83392 425.28768 330.83392 425.28768 330.83392M373.84192 215.552l20.39808 75.42784 54.39488-54.80448L373.84192 215.552 373.84192 215.552 373.84192 215.552M874.00448 473.84576c-14.82752 0-26.97216-12.14464-27.01312-27.2384l0-326.41024c0-51.95776-51.32288-75.85792-75.63264-75.85792L236.40064 44.3392c-34.0992 0-69.46816 33.71008-75.6736 96.33792L160.72704 637.89056c0 77.80352 56.54528 75.89888 75.6736 75.89888l356.352 0c14.86848 0 26.95168 12.1856 26.95168 27.17696 0 14.97088-12.0832 27.17696-26.95168 27.17696l-360.448 0c-46.63296 0-125.52192-29.22496-125.52192-105.6768l0-525.94688c0-102.83008 64.3072-146.61632 125.52192-146.61632l543.15008 0c69.0176 0 125.5424 43.17184 125.5424 126.13632L900.99712 446.75072C900.89472 461.70112 888.77056 473.84576 874.00448 473.84576L874.00448 473.84576z"  horiz-adv-x="1024" />

    
    <glyph glyph-name="xiazai" unicode="&#58997;" d="M938.855808 257.223618l0-270.299169c0-27.41028-22.210861-49.634444-49.621141-49.634444l-754.442728 0c-27.41028 0-49.647747 22.224164-49.647747 49.634444L85.144192 257.223618c0 27.41028 22.224164 49.634444 49.634444 49.634444s49.634444-22.224164 49.634444-49.634444l0-220.664725 655.17384 0L839.58692 257.223618c0 27.41028 22.224164 49.634444 49.634444 49.634444S938.855808 284.633898 938.855808 257.223618zM476.55165 194.972832c9.335622-9.534144 22.116717-14.905478 35.46063-14.905478 13.344936 0 26.121937 5.371334 35.461653 14.905478l198.014866 202.167442c19.179828 19.583011 18.85544 51.006697-0.732687 70.190619-19.587104 19.175735-51.016931 18.85544-70.196759-0.731664l-112.924909-115.285676L561.634444 781.075551c0 27.41028-22.224164 49.634444-49.634444 49.634444-27.41028 0-49.634444-22.224164-49.634444-49.634444l0-429.754834L349.473393 466.59923c-19.179828 19.583011-50.590212 19.902282-70.186526 0.731664-19.583011-19.179828-19.910469-50.603515-0.730641-70.190619L476.55165 194.972832z"  horiz-adv-x="1024" />

    
    <glyph glyph-name="chakan" unicode="&#58998;" d="M607.839811 0.042898H214.69447A86.82497 86.82497 0 0 0 127.880338 86.929279V681.215219A86.839419 86.839419 0 0 0 214.69447 768.119662h594.28594a86.33729 86.33729 0 0 0 61.436749-25.456857c16.400473-16.400473 25.362934-38.208767 25.373771-61.411462L894.439878 288.178251v-0.10476a32.031496 32.031496 0 0 1 64.059379-0.101149L959.825022 681.110458v0.104761A150.775976 150.775976 0 0 1 808.98041 832.059831H214.69447A150.638703 150.638703 0 0 1 63.940169 681.215219v-594.28594a150.638703 150.638703 0 0 1 150.757914-150.82655h393.141728a31.970084 31.970084 0 0 1 0 63.940169zM950.544667-9.331381l-122.071536 122.071536a192.217875 192.217875 0 1 1-45.213286-45.213286l122.071536-122.071536a31.970084 31.970084 0 0 1 45.213286 45.213286z m-278.547941 105.302594a128.028448 128.028448 0 1 0 90.531332 37.497116 127.193975 127.193975 0 0 0-90.527719-37.497116zM768.004516 543.787205c17.653989 0 31.966472 14.402794 31.970084 32.056783s-14.308871 32.074845-31.966472 32.078457L256.002709 608.088618a32.020659 32.020659 0 0 1-31.970084-32.024271c0-17.657601 14.308871-32.092907 31.966472-32.092908L768.004516 543.787205zM448.000226 351.966698a31.96286 31.96286 0 1 1 0 63.940169h-192.001129a31.937573 31.937573 0 1 1 0-63.878758l192.001129-0.061411zM256.017159 224.08636a31.959247 31.959247 0 1 1 0-63.922107l127.999549-0.018062a31.941185 31.941185 0 1 1 0 63.878757z"  horiz-adv-x="1024" />

    
    <glyph glyph-name="lianjielianlu" unicode="&#59448;" d="M512.727 732.143L127.312 201.519C74.097 128.255 90.35 25.725 163.614-27.49c73.264-53.215 175.795-36.962 229.009 36.302l385.415 530.623c31.929 43.958 22.177 105.477-21.781 137.406-43.958 31.929-105.477 22.177-137.406-21.781L233.437 124.436c-10.643-14.653-7.392-35.159 7.26-45.802 14.653-10.643 35.159-7.392 45.802 7.26l385.415 530.623c10.643 14.653 31.149 17.903 45.802 7.26 14.653-10.643 17.903-31.149 7.26-45.802L339.561 47.353c-31.929-43.958-93.447-53.71-137.406-21.781-43.958 31.929-53.71 93.447-21.781 137.406l385.415 530.623c53.215 73.264 155.746 89.517 229.009 36.302 73.264-53.215 89.517-155.746 36.302-229.009L484.227 23.333c-10.643-14.653-7.392-35.159 7.26-45.802 14.653-10.643 35.159-7.392 45.802 7.26l346.874 477.561c74.5 102.569 51.746 246.113-50.823 320.613-102.569 74.501-246.112 51.747-320.613-50.822z"  horiz-adv-x="1024" />

    
    <glyph glyph-name="wenhao" unicode="&#59001;" d="M512.096 895.712C229.696 895.712 0.736 666.784 0.736 384.352c0-282.4 228.96-511.36 511.36-511.36s511.36 228.96 511.36 511.36c0 282.432-228.928 511.36-511.36 511.36z m0-933.216c-232.992 0-421.888 188.864-421.888 421.856S279.136 806.24 512.096 806.24 933.984 617.344 933.984 384.32c0-232.96-188.896-421.856-421.888-421.856zM497.28 160.48000000000002c-16.32 0-29.952-5.472-40.896-16.448-10.976-10.976-16.48-24.64-16.48-40.96 0-16.288 5.504-29.92 16.48-40.896 10.944-10.976 24.608-16.448 40.928-16.448 16.32 0 29.952 5.472 40.896 16.448 10.976 10.976 16.448 24.608 16.448 40.928 0 16.32-5.472 29.952-16.448 40.96-10.944 10.944-24.608 16.416-40.896 16.416z m140.512 491.936a141.12 141.12 0 0 1-53.568 29.952 210.4 210.4 0 0 1-67.52 8.864c-24.768-0.544-47.968-4.352-69.6-11.392a197.28 197.28 0 0 1-56.544-28.256c-16.032-11.84-28.704-26.016-37.984-42.624a109.632 109.632 0 0 1-13.92-54.4c0-14.08 3.648-24.768 10.976-32.064 7.296-7.36 19.392-11.264 36.288-11.84a79.68 79.68 0 0 1 39.648 10.976c12.928 7.296 19.424 18.272 19.424 32.928 0 14.592 7.04 25.28 21.088 32.064 14.08 6.72 30.08 10.4 48.096 10.944 17.984 0.576 33.472-3.2 46.4-11.392 12.928-8.16 19.424-23.744 19.424-46.816 0-9.6-0.832-18.144-2.56-25.728a94.176 94.176 0 0 0-8.416-22.784 136.96 136.96 0 0 0-16.48-24.064c-7.04-8.448-15.584-17.728-25.728-27.84-13.504-12.96-25.28-26.88-35.424-41.76a301.728 301.728 0 0 1-40.96-86.912c-3.648-13.248-5.44-24.32-5.44-33.344 0-17.44 5.056-29.952 15.168-37.536 10.144-7.616 22.496-11.392 37.12-11.392 14.624 0 27.008 4.064 37.12 12.224 10.144 8.16 15.2 20.384 15.2 36.704 0 10.688 0.704 20.544 2.112 29.536 1.408 8.96 4.64 18.144 9.696 27.424 5.088 9.28 12.384 19.68 21.952 31.232 9.568 11.52 22.496 25.152 38.816 40.928 24.16 23.04 40.352 44.576 48.512 64.544a178.88 178.88 0 0 1 13.088 63.68c0.544 25.92-3.232 48.672-11.392 68.384a136.96 136.96 0 0 1-34.56 49.76z"  horiz-adv-x="1024" />

    
    <glyph glyph-name="yuandian" unicode="&#58999;" d="M512 857.33250014c-261.40817872 0-473.33250014-211.92432143-473.33250014-473.33250014s211.92432143-473.33250014 473.33250014-473.33250014 473.33250014 211.92432143 473.33250014 473.33250014-211.92432143 473.33250014-473.33250014 473.33250014z"  horiz-adv-x="1024" />

    
    <glyph glyph-name="map" unicode="&#59060;" d="M512.660032 831.978894c-150.943804 0-256.796644-104.943121-256.796644-255.842922 0-142.524041 38.32384-292.391327 202.794729-456.861192 32.138978-32.138978 54.001915-54.82363 54.001915-54.82363s21.868053 21.047362 55.644321 54.82363c164.469865 164.469865 199.243857 300.206316 199.243857 456.861192C767.54821 727.036797 663.570067 831.978894 512.660032 831.978894zM523.07729 164.50286700000004c-3.324722-3.324722-6.53381-6.526647-9.619078-9.597589-3.072989 3.088338-6.268774 6.29231-9.572006 9.596566-70.794369 70.794369-119.487372 141.139507-148.862399 215.054961-24.013927 60.427254-35.198663 122.891911-35.198663 196.580191 0 56.58474 18.307971 104.706737 52.943816 139.16555 34.665521 34.487465 83.039251 52.716642 139.892097 52.716642 56.580646 0 104.537891-18.147312 138.687666-52.479235 34.175357-34.358529 52.239781-82.563414 52.239781-139.402957C703.58748 433.447179 673.39176 314.815291 523.07729 164.50286700000004zM511.706311 704.057433c-70.64906 0-127.921461-57.272401-127.921461-127.921461s57.272401-127.921461 127.921461-127.921461 127.921461 57.272401 127.921461 127.921461S582.355371 704.057433 511.706311 704.057433zM511.706311 512.176264c-35.32453 0-63.960731 28.636201-63.960731 63.960731s28.636201 63.960731 63.960731 63.960731c35.32453 0 63.960731-28.636201 63.960731-63.960731S547.030841 512.176264 511.706311 512.176264zM959.426309-24.401504000000045l0.004093-0.001023 0.001023 4.02671-64.443731 256.539794 0 0c-2.28095 11.498892-12.422937 20.169365-24.592095 20.169365L728.662575 256.333342c-13.848403 0-25.075095-11.226692-25.075095-25.075095l0-13.81054c0-13.848403 11.226692-25.075095 25.075095-25.075095l102.362342 0 48.095391-191.882192L144.291291 0.4904189999999744l48.095391 191.882192 102.362342 0c13.848403 0 25.075095 11.226692 25.075095 25.075095l0 13.81054c0 13.848403-11.226692 25.075095-25.075095 25.075095L153.017022 256.333342c-12.169157 0-22.311145-8.670473-24.592095-20.169365l0 0L63.981197-20.375816999999984l0-3.332908 0.022513 0.007163c-0.010233-0.293689-0.022513-0.586354-0.022513-0.88209l0-13.81054c0-13.848403 11.226692-25.075095 25.075095-25.075095l845.299015 0c13.848403 0 25.075095 11.226692 25.075095 25.075095l0 13.81054C959.430402-24.523277000000007 959.426309-24.462901999999985 959.426309-24.401504000000045z"  horiz-adv-x="1024" />

    
    <glyph glyph-name="qiehuan2" unicode="&#59000;" d="M158.787484 154.33142899999996h635.611429a111.177143 111.177143 0 0 1 113.371428 113.371428V381.07428600000003a38.034286 38.034286 0 0 0 73.142858 0v-113.371429a187.977143 187.977143 0 0 0-189.44-189.44H128.798913l139.702857-139.702857a37.302857 37.302857 0 1 0-52.662857-52.662857L30.056056 70.94857100000002a40.96 40.96 0 0 0-10.971429 26.331429 33.645714 33.645714 0 0 0 10.971429 26.331429L219.496056 311.588571a35.84 35.84 0 0 0 52.662857 0 36.571429 36.571429 0 0 0 0-53.394285z m760.685715 491.52h-731.428572A111.908571 111.908571 0 0 1 73.210341 531.017143v-111.908572a35.84 35.84 0 0 0-37.302857-38.034285 35.84 35.84 0 0 0-35.84 38.034285V531.017143a187.977143 187.977143 0 0 0 189.44 190.902857h703.634286l-109.714286 109.714286a35.84 35.84 0 0 0 0 52.662857 35.84 35.84 0 0 0 52.662857 0L1024.067484 694.857143a37.302857 37.302857 0 0 0 11.702857-26.331429 32.914286 32.914286 0 0 0-11.702857-26.331428l-187.977143-184.32a37.302857 37.302857 0 1 0-52.662857 52.662857z"  horiz-adv-x="1038" />

    
    <glyph glyph-name="fanhui" unicode="&#59056;" d="M672 6.4v-6.4h-512v64h448a256 256 0 0 1 0 512h-256v-102.4a26.496 26.496 0 0 0-27.584-25.152 29.056 29.056 0 0 0-16.128 4.8l-200.96 133.824a23.872 23.872 0 0 0-6.4 35.2 26.816 26.816 0 0 0 6.4 5.568l200.96 133.76a29.12 29.12 0 0 0 38.4-5.568 23.68 23.68 0 0 0 5.312-14.848V640h256a320 320 0 0 0 64-633.6z"  horiz-adv-x="1024" />

    
    <glyph glyph-name="fenzu" unicode="&#58881;" d="M0 896m85.333333 0l853.333334 0q85.333333 0 85.333333-85.333333l0-853.333334q0-85.333333-85.333333-85.333333l-853.333334 0q-85.333333 0-85.333333 85.333333l0 853.333334q0 85.333333 85.333333 85.333333ZM789.333333 384c0-153.130667-124.096-277.333333-277.333333-277.333333a276.8 276.8 0 0 0-229.952 122.282666A275.882667 275.882667 0 0 0 234.666667 384c0 153.130667 124.096 277.333333 277.333333 277.333333s277.333333-124.202667 277.333333-277.333333zM525.824 503.104l27.648-58.581333c2.261333-4.736 6.613333-8.042667 11.541333-8.746667l61.802667-9.386667c12.629333-1.962667 17.664-18.154667 8.490667-27.434666l-44.714667-45.589334a16.64 16.64 0 0 1-4.437333-14.229333l10.56-64.341333c2.154667-13.098667-11.072-23.104-22.314667-16.917334l-55.274667 30.421334a14.72 14.72 0 0 1-14.314666 0l-55.274667-30.421334c-11.264-6.186667-24.490667 3.818667-22.314667 16.917334l10.56 64.341333a16.341333 16.341333 0 0 1-4.437333 14.229333l-44.714667 45.589334c-9.088 9.28-4.053333 25.472 8.490667 27.434666l61.781333 9.386667a15.125333 15.125333 0 0 1 11.562667 8.746667l27.626667 58.581333a15.253333 15.253333 0 0 0 27.733333 0z"  horiz-adv-x="1024" />

    
    <glyph glyph-name="fenzu1" unicode="&#58882;" d="M0 896h1718.044444v-1024H0zM455.111111 500.269511h157.411556c45.112889 69.882311 117.179733 111.251911 216.211911 124.120178 99.032178 12.856889 234.496-20.935111 406.402844-101.432889C1108.195556 627.529956 972.743111 679.822222 828.7232 679.822222 684.737422 679.822222 560.196267 619.975111 455.111111 500.269511zM1257.892978 475.022222H1100.481422c-45.112889-69.882311-117.191111-111.251911-216.211911-124.131555-99.032178-12.856889-234.496 20.957867-406.402844 101.432889 126.919111-104.561778 262.394311-156.854044 406.402844-156.854045s268.549689 59.847111 373.623467 179.552711z"  horiz-adv-x="1718" />

    
    <glyph glyph-name="fenzu2" unicode="&#58883;" d="M0 896m85.333333 0l853.333334 0q85.333333 0 85.333333-85.333333l0-853.333334q0-85.333333-85.333333-85.333333l-853.333334 0q-85.333333 0-85.333333 85.333333l0 853.333334q0 85.333333 85.333333 85.333333ZM512 661.333333c-153.173333 0-277.333333-124.16-277.333333-277.333333s124.16-277.333333 277.333333-277.333333 277.333333 124.16 277.333333 277.333333a277.333333 277.333333 0 0 1-277.333333 277.333333z m-13.269333-428.181333V360.106667l-92.8-3.157334 149.248 178.282667-19.797334-126.997333 82.901334 3.2-119.552-178.304z"  horiz-adv-x="1024" />

    
    <glyph glyph-name="fenzu3" unicode="&#58884;" d="M0 896m85.333333 0l853.333334 0q85.333333 0 85.333333-85.333333l0-853.333334q0-85.333333-85.333333-85.333333l-853.333334 0q-85.333333 0-85.333333 85.333333l0 853.333334q0 85.333333 85.333333 85.333333ZM733.994667 423.402667h-34.069334v101.546666a23.317333 23.317333 0 0 1-23.381333 23.168h-125.184v40.298667a72.512 72.512 0 0 1-21.909333 52.096A73.301333 73.301333 0 0 1 476.672 661.333333a75.349333 75.349333 0 0 1-72.106667-76.245333v-36.949333h-125.184c-12.885333 0-23.317333-10.346667-23.381333-23.146667v-78.122667c-0.042667-6.186667 2.389333-12.16 6.784-16.576 4.373333-4.394667 10.368-6.869333 16.597333-6.869333h13.077334a75.392 75.392 0 0 0 76.650666-71.616 72.490667 72.490667 0 0 0-21.056-52.458667 73.301333 73.301333 0 0 0-52.437333-21.632h-16.234667c-12.906667 0-23.381333-10.410667-23.381333-23.253333v-124.522667c0-12.842667 10.453333-23.253333 23.381333-23.253333h101.802667c6.208-0.021333 12.16 2.410667 16.576 6.784 4.373333 4.373333 6.826667 10.282667 6.826667 16.469333v11.52a75.349333 75.349333 0 0 0 72.085333 76.245334 73.301333 73.301333 0 0 0 52.778667-20.778667 72.512 72.512 0 0 0 21.909333-52.117333v-14.869334c-0.042667-6.165333 2.410667-12.074667 6.784-16.426666 4.352-4.373333 10.304-6.826667 16.490667-6.826667h101.909333c12.906667 0 23.381333 10.410667 23.381333 23.253333v147.776h37.333334a73.301333 73.301333 0 0 1 52.416 21.696 72.490667 72.490667 0 0 1 20.970666 52.48 75.392 75.392 0 0 1-76.650666 71.530667z"  horiz-adv-x="1024" />

    
    <glyph glyph-name="fenzucopy" unicode="&#58885;" d="M160 800h704a96 96 0 0 0 96-96v-736a96 96 0 0 0-96-96H160a96 96 0 0 0-96 96V704a96 96 0 0 0 96 96zM256 544h512v-96H256zM256 352h512v-96H256zM256 160h256v-96H256zM512 736m-160 0a160 160 0 1 1 320 0 160 160 0 1 1-320 0ZM512 736m-64 0a64 64 0 1 1 128 0 64 64 0 1 1-128 0Z"  horiz-adv-x="1024" />

    
    <glyph glyph-name="fenzucopy1" unicode="&#58886;" d="M398.394514 837.485714h214.396343l-282.0096-276.6848L230.078171 661.650286zM356.469029 433.824914l212.816457 211.616915 96.694857-98.069943-218.375314-211.616915zM466.7392 206.204343l245.906286 239.996343 96.402285-101.522286-244.706742-240.493714zM219.428571 70.8608l127.853715 134.846171 119.456914-120.0128-126.683429-135.343542zM453.485714-87.274057l112.201143 97.8944 119.427657-97.8944z"  horiz-adv-x="1024" />

    
    <glyph glyph-name="fenzu4" unicode="&#58889;" d="M0 896m85.333333 0l853.333334 0q85.333333 0 85.333333-85.333333l0-853.333334q0-85.333333-85.333333-85.333333l-853.333334 0q-85.333333 0-85.333333 85.333333l0 853.333334q0 85.333333 85.333333 85.333333ZM435.925333 526.016a100.693333 100.693333 0 0 1-100.629333 100.608A100.693333 100.693333 0 0 1 234.666667 526.016c0-27.776 10.410667-52.053333 27.754666-69.397333-3.456-20.821333-6.933333-41.642667-6.933333-62.464 0-97.152 52.053333-180.437333 124.906667-225.536l20.821333 83.264c-41.642667 34.709333-65.92 86.741333-65.92 142.272 0 10.410667 0 20.821333 3.477333 31.232 52.053333 0 97.152 45.098667 97.152 100.629333z m86.741334 55.509333c34.709333 0 65.92-10.410667 93.696-24.298666-3.477333-10.389333-6.954667-24.277333-6.954667-34.688a100.693333 100.693333 0 0 1 100.629333-100.629334A100.693333 100.693333 0 0 1 810.666667 522.538667a100.693333 100.693333 0 0 1-100.629334 100.629333c-13.866667 0-24.277333-3.477333-38.165333-6.933333A270.357333 270.357333 0 0 1 522.666667 661.333333c-38.186667 0-76.330667-6.933333-107.562667-24.298666l45.098667-65.92a196.48 196.48 0 0 0 62.464 10.410666z m187.370666-194.304c-3.477333-69.397333-41.642667-128.384-100.629333-156.16-17.344 31.232-52.053333 55.530667-90.218667 55.530667a100.693333 100.693333 0 0 1-100.629333-100.629333A100.693333 100.693333 0 0 1 519.189333 85.333333c41.642667 0 76.352 24.298667 93.696 62.464 104.106667 38.165333 176.96 135.317333 176.96 249.813334v17.365333c-3.477333-3.477333-79.786667-27.754667-79.786666-27.754667z"  horiz-adv-x="1024" />

    
    <glyph glyph-name="fenzucopy4" unicode="&#58893;" d="M707.265719 189.299246a158.543339 158.543339 0 0 0 55.825617-25.741224l37.782043-27.753912 13.24137 10.028131V548.016792H706.912616v-358.752856h0.423724z m-156.671892 407.834201h107.237443V648.580584h-107.237443v-51.447137z m0-451.054033l23.304812 17.231436a160.167614 160.167614 0 0 0 83.932631 30.366876V547.981481h-107.237443v-401.902067z m313.237853 32.273633a159.81451 159.81451 0 0 0 107.237443 11.193371V547.981481h-107.237443v-369.734365 0.105931z m0 470.47471v-51.447137h107.237443V648.827757h-107.237443z m-156.671892-51.447137h107.237443V648.827757h-107.237443v-51.447137z m-626.475706 0h107.237444V648.827757H80.825324v-51.447137h-0.141242z m156.671892-436.25901l34.356942-25.705913 37.782043 27.753912a156.42472 156.42472 0 0 0 35.098459 19.314745V547.981481H237.497216v-387.248284l-0.141242 0.388413zM394.063177 597.38062h107.237443V648.827757H394.063177v-51.447137z m-313.237853-414.543163a159.673269 159.673269 0 0 0 107.237443 3.636963V547.981481H80.825324v-365.108713z m313.202542 10.840269h9.957511c34.10977-0.03531 67.301471-10.840268 94.525727-30.719979l2.789516-2.118619V548.016792H394.063177V193.677726zM237.532526 596.992206h107.237443V648.474653H237.497216v-51.447136zM800.873379-127.999294a118.889849 118.889849 0 0 0-70.51471 22.881088l-39.759421 28.954463a38.135146 38.135146 0 0 1-44.844107 0l-39.759421-28.954463a119.913848 119.913848 0 0 0-140.888179 0l-39.759421 28.954463a38.135146 38.135146 0 0 1-44.844107 0l-39.75942-28.954463a119.913848 119.913848 0 0 0-140.888179 0l-39.759421 28.954463a38.135146 38.135146 0 0 1-44.844107 0l-51.411827-37.817354a40.606869 40.606869 0 0 0-55.754996 7.415168 37.852664 37.852664 0 0 0 7.62703 54.0601l51.447137 37.782043a119.913848 119.913848 0 0 0 140.888178 0l39.794731-28.919152a38.135146 38.135146 0 0 1 44.808797 0l39.759421 28.954463a119.913848 119.913848 0 0 0 140.888179 0l39.794731-28.954463a38.135146 38.135146 0 0 1 44.808797 0l39.75942 28.954463a119.913848 119.913848 0 0 0 140.888179 0l39.794731-28.954463a38.135146 38.135146 0 0 1 44.808797 0l39.759421 28.954463a119.913848 119.913848 0 0 0 140.888178 0l39.794732-28.954463c11.299303-8.333236 17.196126-21.892399 15.395299-35.557493-1.765516-13.700404-10.946199-25.423431-24.046328-30.719979a40.78342 40.78342 0 0 0-39.476938 4.802204l-39.759421 28.954463a38.135146 38.135146 0 0 1-44.844107 0l-39.724111-28.954463a118.889849 118.889849 0 0 0-70.267537-22.881088zM794.941245 13.241988a112.533991 112.533991 0 0 0-69.314159 23.834466l-39.088525 30.119704a35.839975 35.839975 0 0 1-44.03197 0l-39.088524-30.119704a112.639922 112.639922 0 0 0-138.522388 0l-39.088524 30.119704a35.839975 35.839975 0 0 1-44.03197 0l-39.088525-30.119704a112.639922 112.639922 0 0 0-138.522387 0l-39.088525 30.119704a35.839975 35.839975 0 0 1-44.031969 0l-48.728243-38.947284a38.417629 38.417629 0 0 0-54.801617 7.69765c-13.064819 17.65516-9.710338 42.866729 7.485788 56.284651L75.564086 131.531562a112.639922 112.639922 0 0 0 138.522387 0l39.088525-30.119704c13.029508-10.063441 31.002461-10.063441 44.031969 0l39.088525 30.119704a112.639922 112.639922 0 0 0 138.487077 0l39.123835-30.119704c13.029508-10.063441 30.967151-10.063441 44.03197 0l39.088525 30.119704a112.639922 112.639922 0 0 0 138.487077 0l39.088524-30.119704c13.064819-10.063441 31.002461-10.063441 44.06728 0l39.088525 30.119704a112.639922 112.639922 0 0 0 138.487077 0l39.088525-30.119704c17.196126-13.417922 20.550607-38.59418 7.485788-56.284651-13.064819-17.65516-37.570181-21.115572-54.766307-7.697649l-39.088525 30.119703a35.839975 35.839975 0 0 1-44.06728 0l-39.088525-30.119703a112.533991 112.533991 0 0 0-70.867813-24.22288zM1005.637927 811.255231V896h-220.3364v-84.744769H261.896647V896h-220.3364v-84.744769H0v-66.913057h1059.309614V811.255231h-53.671687z m-899.07138 0v17.831712h90.182559V811.255231H106.566547z m743.74128 0v17.831712h90.041318V811.255231h-90.041318z"  horiz-adv-x="1059" />

    
    <glyph glyph-name="lujingcopy1" unicode="&#58895;" d="M415.312213 839.202133C255.73888 705.194667 162.896213 616.448 23.871147 462.267733c-34.542933-45.8752-28.945067-131.1744 0-131.1744h129.6384v-327.918933c0-48.2304 6.826667-131.1744 56.968533-131.1744h202.308267v327.918933h259.2768V-128h186.914133c37.751467 0 72.362667 34.7136 72.362667 131.1744V331.093333h129.6384c38.570667 0 44.817067 92.808533 0 131.1744-127.249067 130.935467-270.472533 257.570133-409.088 372.599467-109.4656 86.459733-168.891733 75.025067-236.578134 4.334933z"  horiz-adv-x="1092" />

    
    <glyph glyph-name="xingzhuangcopy" unicode="&#58896;" d="M939.119391 539.661337l-346.391607-180.9194c-31.97686-16.500411-51.490644-49.530489-51.490644-86.305341v-349.756052c0-37.535509 38.237655-62.315382 70.214515-45.054313l346.391606 180.890143a97.510407 97.510407 0 0 1 51.490645 86.305342v349.02465c0 38.296167-38.237655 62.315382-70.214515 45.785715z m-507.884991-180.070974L84.842794 539.661337c-31.97686 16.500411-70.214515-7.518804-70.214515-45.025057v-351.072575c0-36.745596 19.513784-69.746418 51.490644-86.246829l346.391607-180.041718c31.97686-16.500411 70.214515 8.250205 70.214514 45.756459V273.314278c0 36.774852-19.513784 69.775674-51.490644 86.305341z m467.745693 264.474672c16.207851 8.572022 23.931447 23.404838 22.380877 37.506254 1.550571 14.832816-6.14377 28.904975-22.380877 37.506253L549.809162 883.507668C534.361969 892.07969 515.813634 896 497.294556 896c-18.548334 0-37.096669-3.92031-52.543862-12.492332L95.609019 699.838199c-16.237107-8.572022-23.17079-23.404838-22.410132-37.506253-0.760657-14.832816 6.173026-29.694889 22.410132-38.266911l349.141675-183.669468c15.447193-8.572022 33.995528-12.492332 52.543862-12.492333 18.519078 0 37.067413 3.92031 52.514606 12.492333l349.170931 183.669468z"  horiz-adv-x="1024" />

    
    <glyph glyph-name="fenzucopy5" unicode="&#58897;" d="M707.265719 189.299246a158.543339 158.543339 0 0 0 55.825617-25.741224l37.782043-27.753912 13.24137 10.028131V548.016792H706.912616v-358.752856h0.423724z m-156.671892 407.834201h107.237443V648.580584h-107.237443v-51.447137z m0-451.054033l23.304812 17.231436a160.167614 160.167614 0 0 0 83.932631 30.366876V547.981481h-107.237443v-401.902067z m313.237853 32.273633a159.81451 159.81451 0 0 0 107.237443 11.193371V547.981481h-107.237443v-369.734365 0.105931z m0 470.47471v-51.447137h107.237443V648.827757h-107.237443z m-156.671892-51.447137h107.237443V648.827757h-107.237443v-51.447137z m-626.475706 0h107.237444V648.827757H80.825324v-51.447137h-0.141242z m156.671892-436.25901l34.356942-25.705913 37.782043 27.753912a156.42472 156.42472 0 0 0 35.098459 19.314745V547.981481H237.497216v-387.248284l-0.141242 0.388413zM394.063177 597.38062h107.237443V648.827757H394.063177v-51.447137z m-313.237853-414.543163a159.673269 159.673269 0 0 0 107.237443 3.636963V547.981481H80.825324v-365.108713z m313.202542 10.840269h9.957511c34.10977-0.03531 67.301471-10.840268 94.525727-30.719979l2.789516-2.118619V548.016792H394.063177V193.677726zM237.532526 596.992206h107.237443V648.474653H237.497216v-51.447136zM800.873379-127.999294a118.889849 118.889849 0 0 0-70.51471 22.881088l-39.759421 28.954463a38.135146 38.135146 0 0 1-44.844107 0l-39.759421-28.954463a119.913848 119.913848 0 0 0-140.888179 0l-39.759421 28.954463a38.135146 38.135146 0 0 1-44.844107 0l-39.75942-28.954463a119.913848 119.913848 0 0 0-140.888179 0l-39.759421 28.954463a38.135146 38.135146 0 0 1-44.844107 0l-51.411827-37.817354a40.606869 40.606869 0 0 0-55.754996 7.415168 37.852664 37.852664 0 0 0 7.62703 54.0601l51.447137 37.782043a119.913848 119.913848 0 0 0 140.888178 0l39.794731-28.919152a38.135146 38.135146 0 0 1 44.808797 0l39.759421 28.954463a119.913848 119.913848 0 0 0 140.888179 0l39.794731-28.954463a38.135146 38.135146 0 0 1 44.808797 0l39.75942 28.954463a119.913848 119.913848 0 0 0 140.888179 0l39.794731-28.954463a38.135146 38.135146 0 0 1 44.808797 0l39.759421 28.954463a119.913848 119.913848 0 0 0 140.888178 0l39.794732-28.954463c11.299303-8.333236 17.196126-21.892399 15.395299-35.557493-1.765516-13.700404-10.946199-25.423431-24.046328-30.719979a40.78342 40.78342 0 0 0-39.476938 4.802204l-39.759421 28.954463a38.135146 38.135146 0 0 1-44.844107 0l-39.724111-28.954463a118.889849 118.889849 0 0 0-70.267537-22.881088zM794.941245 13.241988a112.533991 112.533991 0 0 0-69.314159 23.834466l-39.088525 30.119704a35.839975 35.839975 0 0 1-44.03197 0l-39.088524-30.119704a112.639922 112.639922 0 0 0-138.522388 0l-39.088524 30.119704a35.839975 35.839975 0 0 1-44.03197 0l-39.088525-30.119704a112.639922 112.639922 0 0 0-138.522387 0l-39.088525 30.119704a35.839975 35.839975 0 0 1-44.031969 0l-48.728243-38.947284a38.417629 38.417629 0 0 0-54.801617 7.69765c-13.064819 17.65516-9.710338 42.866729 7.485788 56.284651L75.564086 131.531562a112.639922 112.639922 0 0 0 138.522387 0l39.088525-30.119704c13.029508-10.063441 31.002461-10.063441 44.031969 0l39.088525 30.119704a112.639922 112.639922 0 0 0 138.487077 0l39.123835-30.119704c13.029508-10.063441 30.967151-10.063441 44.03197 0l39.088525 30.119704a112.639922 112.639922 0 0 0 138.487077 0l39.088524-30.119704c13.064819-10.063441 31.002461-10.063441 44.06728 0l39.088525 30.119704a112.639922 112.639922 0 0 0 138.487077 0l39.088525-30.119704c17.196126-13.417922 20.550607-38.59418 7.485788-56.284651-13.064819-17.65516-37.570181-21.115572-54.766307-7.697649l-39.088525 30.119703a35.839975 35.839975 0 0 1-44.06728 0l-39.088525-30.119703a112.533991 112.533991 0 0 0-70.867813-24.22288zM1005.637927 811.255231V896h-220.3364v-84.744769H261.896647V896h-220.3364v-84.744769H0v-66.913057h1059.309614V811.255231h-53.671687z m-899.07138 0v17.831712h90.182559V811.255231H106.566547z m743.74128 0v17.831712h90.041318V811.255231h-90.041318z"  horiz-adv-x="1059" />

    
    <glyph glyph-name="fenzucopy6" unicode="&#58898;" d="M583.256276 279.022345l178.776276 346.253241a134.638345 134.638345 0 0 0 120.090482 73.198345H882.758621V815.280552C882.758621 859.700966 842.857931 896 793.882483 896H88.876138C39.90069 896 0 859.842207 0 815.280552v-862.561104C0-91.700966 39.90069-128 88.876138-128h705.006345C842.857931-128 882.758621-91.842207 882.758621-47.13931V80.331034h-179.411862a134.744276 134.744276 0 0 0-114.334897 63.205518l-0.141241 0.247172-0.105931 0.247173a136.615724 136.615724 0 0 0-5.508414 134.920827z m-113.593379-161.368276c-7.273931-7.168-17.302069-11.581793-28.354207-11.581793H160.485517a39.90069 39.90069 0 0 0-40.112551 39.476965c0 10.875586 4.484414 20.762483 11.758344 27.895173 7.273931 7.168 17.302069 11.652414 28.354207 11.652414h280.823173a39.90069 39.90069 0 0 0 40.112551-39.547587c0-10.840276-4.484414-20.727172-11.758344-27.895172z m0 236.402759c-7.273931-7.168-17.302069-11.581793-28.354207-11.581794H160.485517a39.90069 39.90069 0 0 0-40.112551 39.476966c0 10.875586 4.484414 20.762483 11.758344 27.895172 7.273931 7.168 17.302069 11.652414 28.354207 11.652414h280.823173a39.90069 39.90069 0 0 0 40.112551-39.547586c0-10.840276-4.484414-20.727172-11.758344-27.895172zM160.485517 580.113655a39.90069 39.90069 0 0 0-40.112551 39.476966c0 10.875586 4.484414 20.762483 11.758344 27.895172 7.273931 7.168 17.302069 11.617103 28.354207 11.617104h481.421242a39.90069 39.90069 0 0 0 40.112551-39.512276c0-10.840276-4.484414-20.727172-11.758344-27.895173-7.273931-7.168-17.302069-11.581793-28.354207-11.581793H160.485517zM1123.575172 238.203586L947.976828 583.503448A53.671724 53.671724 0 0 1 900.343172 613.517241c-20.056276 0-38.276414-11.581793-47.668965-30.013793L677.252414 238.168276a59.745103 59.745103 0 0 1 2.330483-57.873655c10.098759-16.136828 26.835862-25.847172 45.303172-25.847173h350.914207c18.46731 0 35.451586 9.710345 45.550345 25.847173 10.593103 17.478621 11.440552 39.653517 2.224551 57.908965z m-262.638344 194.913104a39.265103 39.265103 0 0 0 78.565517 0v-78.035862a39.265103 39.265103 0 0 0-78.565517 0v78.035862z m39.300413-210.90869a39.371034 39.371034 0 0 0-39.300413 39.547586c0 21.786483 17.725793 39.265103 39.300413 39.265104 21.786483 0 39.512276-17.725793 39.512276-39.300414a39.547586 39.547586 0 0 0-39.547586-39.547586z"  horiz-adv-x="1129" />

    
    <glyph glyph-name="xingzhuang" unicode="&#58899;" d="M1010.976239-52.31746l-223.962469 223.913707A441.244585 441.244585 0 0 1 887.36534 452.268568c0 244.588666-198.947719 443.731432-443.68267 443.731432C199.094004 896 0 697.00352 0 452.268568c0-244.734951 198.947719-443.731432 443.731432-443.731431 106.300497 0 204.067697 37.644029 280.623559 100.35157l223.913707-223.913707a44.226858 44.226858 0 0 1 31.402532-12.970611 44.226858 44.226858 0 0 1 31.305009 75.678151zM88.746286 452.268568c0 195.729447 159.255698 354.985145 354.985146 354.985146 195.631923 0 354.936384-159.255698 354.936383-354.985146 0-195.680685-159.30446-354.985145-354.985145-354.985145S88.746286 256.587883 88.746286 452.268568z"  horiz-adv-x="1024" />

    
    <glyph glyph-name="fenzu7" unicode="&#58900;" d="M0 896m512 0l0 0q512 0 512-512l0 0q0-512-512-512l0 0q-512 0-512 512l0 0q0 512 512 512Z"  horiz-adv-x="1024" />

    
    <glyph glyph-name="xingzhuangcopy1" unicode="&#58901;" d="M512 896C229.216 896 0 666.784 0 384s229.216-512 512-512 512 229.216 512 512A512 512 0 0 1 512 896z m-24.512-790.496v234.432l-171.328-5.856 275.552 329.152L555.2 428.8l153.024 5.856-220.704-329.152z"  horiz-adv-x="1024" />

    
    <glyph glyph-name="fenzucopy7" unicode="&#58902;" d="M952.88019 462.042213C953.02241 670.366026 802.525237 849.335637 594.485864 888.303909 386.36116 927.27218 179.544879 815.1744 101.864331 621.357024c-77.680548-193.788932-4.266599-414.54277 174.845232-525.730343a293.542019 293.542019 0 0 1-66.302951-185.369509c0-21.133888 17.407724-38.257172 38.88294-38.257172h525.133019c21.50366 0 38.911384 17.123284 38.911384 38.257172a293.542019 293.542019 0 0 1-66.331394 185.369509c127.997973 79.301855 205.678521 217.624999 205.849185 366.415532z m-289.360752-258.01547a202.521238 202.521238 0 0 0-147.823437-63.742991 202.521238 202.521238 0 0 0-147.823437 63.714547 37.830512 37.830512 0 0 0-10.808718 38.45628c3.982159 13.795337 15.501977 24.234283 29.809306 27.021794a39.252712 39.252712 0 0 0 38.058064-13.738449 123.731374 123.731374 0 0 1 90.508789-39.16738c34.417233 0 67.241602 14.221997 90.508789 39.16738 9.386518 10.097618 23.551627 14.506437 37.147856 11.576706 13.596229-2.929731 24.575611-12.799797 28.785322-25.855591 4.209711-13.055793 1.023984-27.306234-8.362534-37.432296zM526.220279 327.103905a199.107959 199.107959 0 1 0 199.107958 199.051071A199.307067 199.307067 0 0 0 526.220279 327.103905zM639.996255 526.211864a113.775976 113.775976 0 1 0-227.551953 0 113.775976 113.775976 0 0 0 227.551953 0z"  horiz-adv-x="1024" />

    
    <glyph glyph-name="xingzhuangcopy2" unicode="&#58903;" d="M1010.976239-52.31746l-223.962469 223.913707A441.244585 441.244585 0 0 1 887.36534 452.268568c0 244.588666-198.947719 443.731432-443.68267 443.731432C199.094004 896 0 697.00352 0 452.268568c0-244.734951 198.947719-443.731432 443.731432-443.731431 106.300497 0 204.067697 37.644029 280.623559 100.35157l223.913707-223.913707a44.226858 44.226858 0 0 1 31.402532-12.970611 44.226858 44.226858 0 0 1 31.305009 75.678151zM88.746286 452.268568c0 195.729447 159.255698 354.985145 354.985146 354.985146 195.631923 0 354.936384-159.255698 354.936383-354.985146 0-195.680685-159.30446-354.985145-354.985145-354.985145S88.746286 256.587883 88.746286 452.268568z"  horiz-adv-x="1024" />

    
    <glyph glyph-name="xingzhuangcopy3" unicode="&#58904;" d="M180.304326-37.207855V288.983973c0 195.123469 158.032944 353.383962 353.127968 353.383961 195.095025 0 353.127969-158.260493 353.127969-353.383961v-326.191828h120.544207a45.367629 45.367629 0 0 0 0-90.763701H45.367629a45.367629 45.367629 0 0 0 0 90.763701h134.936697z m378.698814 537.158412l-174.18894-287.081803h139.288576l-34.871921-215.318464 174.18894 287.081804h-139.317019l34.900364 215.318463z m267.114358 315.383239c16.355101-9.528624 21.958501-30.576928 12.515207-46.932029l-62.604483-108.939197-59.191244 34.274604 62.604483 108.939196a34.047054 34.047054 0 0 0 46.476931 12.657426h0.199106zM533.346963 896c20.479431 0 37.062082-15.444904 37.062082-34.587484v-123.44546h-74.09572V861.497847c0 19.057248 16.554207 34.502153 37.033638 34.502153zM240.747091 815.333796a34.132385 34.132385 0 0 0 46.647593-12.543651l62.632927-108.939196-59.191245-34.303048-62.632926 108.939197a34.359934 34.359934 0 0 0 12.515207 46.846698zM26.481043 600.015333a34.047054 34.047054 0 0 0 46.647593 12.515208l108.484098-62.974251-34.132385-59.447237-108.484098 63.088025a34.331491 34.331491 0 0 0-12.515208 46.818255z m1013.845615 0a34.473709 34.473709 0 0 0-12.515208-46.93203l-108.455654-62.860476-34.160828 59.447238 108.455654 62.97425a34.132385 34.132385 0 0 0 46.590705-12.429877c0-0.113775 0.085331-0.113775 0.085331-0.199105z"  horiz-adv-x="1052" />

    
    <glyph glyph-name="xingzhuang1" unicode="&#58905;" d="M389.9392 723.6096h346.5216V807.7312H389.9392v-84.1216z m519.7824 0h86.8864c23.552 0 43.1616-19.5072 43.1616-44.5952v-678.5536a44.032 44.032 0 0 0-43.5712-44.5952H130.2016a43.8784 43.8784 0 0 0-43.5712 44.5952V679.1168a44.032 44.032 0 0 0 43.7248 44.5952H218.624V807.936H130.3552C57.856 807.8848 0 750.0288 0 679.2704v-678.656C0-70.2976 58.0096-128 130.2016-128h865.9968C1068.3904-128 1126.4-70.144 1126.4 0.6144V679.1168a129.0752 129.0752 0 0 1-129.6384 128.6144H909.824l-0.1024-84.1216zM259.8912 854.016c0 23.0912 19.2512 41.9328 43.3152 41.9328 23.9104 0 43.3152-18.688 43.3152-41.9328v-176.64a42.5984 42.5984 0 0 0-43.3152-41.984 42.5984 42.5984 0 0 0-43.3152 41.984V854.016z m519.9872 0a42.496 42.496 0 0 0 43.3152 41.7792c23.9616 0 43.3152-18.688 43.3152-41.7792v-176.5376a42.496 42.496 0 0 0-43.3152-41.7792c-23.9104 0-43.3152 18.688-43.3152 41.7792V854.016zM259.8912 436.7872c0 23.1936 19.5072 41.984 43.7248 41.984h519.3216c24.064 0 43.7248-18.6368 43.7248-41.984 0-23.296-19.5072-42.0864-43.7248-42.0864H303.616c-24.2176 0-43.7248 18.688-43.7248 42.0352z m0-243.5072c0 23.2448 19.5072 42.0864 43.7248 42.0864h519.3216c24.064 0 43.7248-18.688 43.7248-42.0864 0-23.1936-19.5072-42.0352-43.7248-42.0352H303.616c-24.2176 0-43.7248 18.688-43.7248 42.0352z"  horiz-adv-x="1126" />

    
    <glyph glyph-name="xingzhuangcopy4" unicode="&#58906;" d="M479.979243-122.354162c19.926486-7.527784 42.094703-7.527784 62.021189 0l127.750919 60.056216H356.877838l123.101405-60.056216z m208.176433 188.000865H341.877622c-20.67373 0-34.539243-12.952216-34.539244-32.186811 0-8.773189 3.653189-17.020541 10.073946-23.192216 6.559135-6.060973 15.276973-9.40973 24.465298-9.132973h346.167351c19.539027 0 34.539243 13.920865 34.539243 32.186811 0 18.376649-14.861838 32.325189-34.42854 32.325189z m117.289513 717.602594C723.718919 858.361081 625.996108 896 510.976 896c-114.854054 0-212.715243-37.638919-293.306811-112.750703C137.216 707.971459 96.864865 617.804108 96.864865 512.470486c0.276757-14.308324 0.996324-28.616649 2.269405-42.924972 0-2.103351 2.269405-7.527784 2.269406-9.741838 2.269405-12.952216 4.538811-24.686703 6.918919-35.424865l1.162378-3.210379c0.249081-0.470486 0.249081-0.249081 0.249081 0.276757l0.885622-3.487135c3.404108-12.066595 7.555459-23.911784 12.592432-35.397189v-2.103351c0-2.075676 1.134703-2.075676 2.269406-2.075676 5.175351-12.841514 10.848865-25.295568 17.297297-37.638919 0-2.103351 1.107027-2.103351 2.269405-2.103351 14.861838-26.153514 32.131459-50.923243 51.808865-74.143136l1.134703-1.107027 1.134702-1.107027 29.88973-27.869405 6.918919-6.420757 8.081297-7.527784 6.946595-4.317405 20.67373-15.055568 3.542486-3.210378c2.269405-2.075676 3.514811-2.075676 4.538811-2.075676 10.350703-9.520432 19.289946-20.369297 26.485622-32.214486 6.918919-11.845189 12.592432-20.341622 18.404324-25.766054 5.673514-5.424432 16.134919-7.527784 32.159135-7.527784h311.738811c15.000216 0 26.457946 2.103351 32.131459 7.527784 5.701189 5.424432 11.485405 13.920865 17.297298 25.766054 6.420757 12.730811 15.885838 23.690378 27.620324 32.214486l3.514811 2.075676 4.538811 3.210378 19.539027 15.055568c0 3.210378 4.566486 4.317405 6.946594 4.317405 5.811892 5.424432 5.811892 8.634811 11.485406 11.84519 2.380108 2.103351-7.057297-6.642162 3.51481 2.103351a372.514595 372.514595 0 0 1 29.88973 27.869405l1.134703 1.107027 1.134703 0.996325 27.620324 35.424865a219.191351 219.191351 0 0 1 24.077838 37.611243c2.269405 0 2.269405 1.107027 2.269405 2.103351 6.559135 12.177297 12.371027 24.76973 17.297297 37.638919l2.269406 2.075676v2.103351c3.404108 9.741838 8.053622 21.448649 12.592432 35.397189 0 3.210378 0 6.420757 2.269406 6.420757l6.918919 35.397189c0 2.103351 0 7.527784 2.297081 9.631135 2.269405 15.027892 2.269405 30.083459 2.269405 44.004325 0.276757 105.499676-40.102054 195.805405-121.689946 271.055567z m-49.539459-274.985513c-19.566703 0-34.594595 16.162595-34.594595 32.214486 0 47.242378-18.376649 85.988324-55.212973 117.068108-36.808649 32.186811-75.914378 47.242378-117.289513 47.242379-19.539027 0-34.539243 12.952216-35.673946 31.079784-0.138378 8.773189 3.542486 17.158919 10.101621 23.192216 6.531459 6.060973 15.36 9.382054 24.437622 9.132973 63.321946 0 119.697297-20.48 169.098378-62.270271 49.456432-40.849297 73.672649-95.619459 73.672649-165.445189-0.636541-17.906162-15.885838-32.103784-34.566919-32.214486z"  horiz-adv-x="1024" />

    
    <glyph glyph-name="fenzu5" unicode="&#58888;" d="M0 896m85.333333 0l853.333334 0q85.333333 0 85.333333-85.333333l0-853.333334q0-85.333333-85.333333-85.333333l-853.333334 0q-85.333333 0-85.333333 85.333333l0 853.333334q0 85.333333 85.333333 85.333333ZM789.333333 384c0-153.130667-124.096-277.333333-277.333333-277.333333a276.8 276.8 0 0 0-229.952 122.282666A275.882667 275.882667 0 0 0 234.666667 384c0 153.130667 124.096 277.333333 277.333333 277.333333s277.333333-124.202667 277.333333-277.333333zM525.824 503.104l27.648-58.581333c2.261333-4.736 6.613333-8.042667 11.541333-8.746667l61.802667-9.386667c12.629333-1.962667 17.664-18.154667 8.490667-27.434666l-44.714667-45.589334a16.64 16.64 0 0 1-4.437333-14.229333l10.56-64.341333c2.154667-13.098667-11.072-23.104-22.314667-16.917334l-55.274667 30.421334a14.72 14.72 0 0 1-14.314666 0l-55.274667-30.421334c-11.264-6.186667-24.490667 3.818667-22.314667 16.917334l10.56 64.341333a16.341333 16.341333 0 0 1-4.437333 14.229333l-44.714667 45.589334c-9.088 9.28-4.053333 25.472 8.490667 27.434666l61.781333 9.386667a15.125333 15.125333 0 0 1 11.562667 8.746667l27.626667 58.581333a15.253333 15.253333 0 0 0 27.733333 0z"  horiz-adv-x="1024" />

    
    <glyph glyph-name="fenzu6" unicode="&#58890;" d="M0 896h1718.044444v-1024H0zM455.111111 500.269511h157.411556c45.112889 69.882311 117.179733 111.251911 216.211911 124.120178 99.032178 12.856889 234.496-20.935111 406.402844-101.432889C1108.195556 627.529956 972.743111 679.822222 828.7232 679.822222 684.737422 679.822222 560.196267 619.975111 455.111111 500.269511zM1257.892978 475.022222H1100.481422c-45.112889-69.882311-117.191111-111.251911-216.211911-124.131555-99.032178-12.856889-234.496 20.957867-406.402844 101.432889 126.919111-104.561778 262.394311-156.854044 406.402844-156.854045s268.549689 59.847111 373.623467 179.552711z"  horiz-adv-x="1718" />

    
    <glyph glyph-name="fenzucopy2" unicode="&#58891;" d="M707.265719 189.299246a158.543339 158.543339 0 0 0 55.825617-25.741224l37.782043-27.753912 13.24137 10.028131V548.016792H706.912616v-358.752856h0.423724z m-156.671892 407.834201h107.237443V648.580584h-107.237443v-51.447137z m0-451.054033l23.304812 17.231436a160.167614 160.167614 0 0 0 83.932631 30.366876V547.981481h-107.237443v-401.902067z m313.237853 32.273633a159.81451 159.81451 0 0 0 107.237443 11.193371V547.981481h-107.237443v-369.734365 0.105931z m0 470.47471v-51.447137h107.237443V648.827757h-107.237443z m-156.671892-51.447137h107.237443V648.827757h-107.237443v-51.447137z m-626.475706 0h107.237444V648.827757H80.825324v-51.447137h-0.141242z m156.671892-436.25901l34.356942-25.705913 37.782043 27.753912a156.42472 156.42472 0 0 0 35.098459 19.314745V547.981481H237.497216v-387.248284l-0.141242 0.388413zM394.063177 597.38062h107.237443V648.827757H394.063177v-51.447137z m-313.237853-414.543163a159.673269 159.673269 0 0 0 107.237443 3.636963V547.981481H80.825324v-365.108713z m313.202542 10.840269h9.957511c34.10977-0.03531 67.301471-10.840268 94.525727-30.719979l2.789516-2.118619V548.016792H394.063177V193.677726zM237.532526 596.992206h107.237443V648.474653H237.497216v-51.447136zM800.873379-127.999294a118.889849 118.889849 0 0 0-70.51471 22.881088l-39.759421 28.954463a38.135146 38.135146 0 0 1-44.844107 0l-39.759421-28.954463a119.913848 119.913848 0 0 0-140.888179 0l-39.759421 28.954463a38.135146 38.135146 0 0 1-44.844107 0l-39.75942-28.954463a119.913848 119.913848 0 0 0-140.888179 0l-39.759421 28.954463a38.135146 38.135146 0 0 1-44.844107 0l-51.411827-37.817354a40.606869 40.606869 0 0 0-55.754996 7.415168 37.852664 37.852664 0 0 0 7.62703 54.0601l51.447137 37.782043a119.913848 119.913848 0 0 0 140.888178 0l39.794731-28.919152a38.135146 38.135146 0 0 1 44.808797 0l39.759421 28.954463a119.913848 119.913848 0 0 0 140.888179 0l39.794731-28.954463a38.135146 38.135146 0 0 1 44.808797 0l39.75942 28.954463a119.913848 119.913848 0 0 0 140.888179 0l39.794731-28.954463a38.135146 38.135146 0 0 1 44.808797 0l39.759421 28.954463a119.913848 119.913848 0 0 0 140.888178 0l39.794732-28.954463c11.299303-8.333236 17.196126-21.892399 15.395299-35.557493-1.765516-13.700404-10.946199-25.423431-24.046328-30.719979a40.78342 40.78342 0 0 0-39.476938 4.802204l-39.759421 28.954463a38.135146 38.135146 0 0 1-44.844107 0l-39.724111-28.954463a118.889849 118.889849 0 0 0-70.267537-22.881088zM794.941245 13.241988a112.533991 112.533991 0 0 0-69.314159 23.834466l-39.088525 30.119704a35.839975 35.839975 0 0 1-44.03197 0l-39.088524-30.119704a112.639922 112.639922 0 0 0-138.522388 0l-39.088524 30.119704a35.839975 35.839975 0 0 1-44.03197 0l-39.088525-30.119704a112.639922 112.639922 0 0 0-138.522387 0l-39.088525 30.119704a35.839975 35.839975 0 0 1-44.031969 0l-48.728243-38.947284a38.417629 38.417629 0 0 0-54.801617 7.69765c-13.064819 17.65516-9.710338 42.866729 7.485788 56.284651L75.564086 131.531562a112.639922 112.639922 0 0 0 138.522387 0l39.088525-30.119704c13.029508-10.063441 31.002461-10.063441 44.031969 0l39.088525 30.119704a112.639922 112.639922 0 0 0 138.487077 0l39.123835-30.119704c13.029508-10.063441 30.967151-10.063441 44.03197 0l39.088525 30.119704a112.639922 112.639922 0 0 0 138.487077 0l39.088524-30.119704c13.064819-10.063441 31.002461-10.063441 44.06728 0l39.088525 30.119704a112.639922 112.639922 0 0 0 138.487077 0l39.088525-30.119704c17.196126-13.417922 20.550607-38.59418 7.485788-56.284651-13.064819-17.65516-37.570181-21.115572-54.766307-7.697649l-39.088525 30.119703a35.839975 35.839975 0 0 1-44.06728 0l-39.088525-30.119703a112.533991 112.533991 0 0 0-70.867813-24.22288zM1005.637927 811.255231V896h-220.3364v-84.744769H261.896647V896h-220.3364v-84.744769H0v-66.913057h1059.309614V811.255231h-53.671687z m-899.07138 0v17.831712h90.182559V811.255231H106.566547z m743.74128 0v17.831712h90.041318V811.255231h-90.041318z"  horiz-adv-x="1059" />

    
    <glyph glyph-name="fenzu8" unicode="&#58892;" d="M0 896m85.333333 0l853.333334 0q85.333333 0 85.333333-85.333333l0-853.333334q0-85.333333-85.333333-85.333333l-853.333334 0q-85.333333 0-85.333333 85.333333l0 853.333334q0 85.333333 85.333333 85.333333ZM435.925333 526.016a100.693333 100.693333 0 0 1-100.629333 100.608A100.693333 100.693333 0 0 1 234.666667 526.016c0-27.776 10.410667-52.053333 27.754666-69.397333-3.456-20.821333-6.933333-41.642667-6.933333-62.464 0-97.152 52.053333-180.437333 124.906667-225.536l20.821333 83.264c-41.642667 34.709333-65.92 86.741333-65.92 142.272 0 10.410667 0 20.821333 3.477333 31.232 52.053333 0 97.152 45.098667 97.152 100.629333z m86.741334 55.509333c34.709333 0 65.92-10.410667 93.696-24.298666-3.477333-10.389333-6.954667-24.277333-6.954667-34.688a100.693333 100.693333 0 0 1 100.629333-100.629334A100.693333 100.693333 0 0 1 810.666667 522.538667a100.693333 100.693333 0 0 1-100.629334 100.629333c-13.866667 0-24.277333-3.477333-38.165333-6.933333A270.357333 270.357333 0 0 1 522.666667 661.333333c-38.186667 0-76.330667-6.933333-107.562667-24.298666l45.098667-65.92a196.48 196.48 0 0 0 62.464 10.410666z m187.370666-194.304c-3.477333-69.397333-41.642667-128.384-100.629333-156.16-17.344 31.232-52.053333 55.530667-90.218667 55.530667a100.693333 100.693333 0 0 1-100.629333-100.629333A100.693333 100.693333 0 0 1 519.189333 85.333333c41.642667 0 76.352 24.298667 93.696 62.464 104.106667 38.165333 176.96 135.317333 176.96 249.813334v17.365333c-3.477333-3.477333-79.786667-27.754667-79.786666-27.754667z"  horiz-adv-x="1024" />

    
    <glyph glyph-name="fenzu9" unicode="&#58894;" d="M0 896m85.333333 0l853.333334 0q85.333333 0 85.333333-85.333333l0-853.333334q0-85.333333-85.333333-85.333333l-853.333334 0q-85.333333 0-85.333333 85.333333l0 853.333334q0 85.333333 85.333333 85.333333ZM733.994667 423.402667h-34.069334v101.546666a23.317333 23.317333 0 0 1-23.381333 23.168h-125.184v40.298667a72.512 72.512 0 0 1-21.909333 52.096A73.301333 73.301333 0 0 1 476.672 661.333333a75.349333 75.349333 0 0 1-72.106667-76.245333v-36.949333h-125.184c-12.885333 0-23.317333-10.346667-23.381333-23.146667v-78.122667c-0.042667-6.186667 2.389333-12.16 6.784-16.576 4.373333-4.394667 10.368-6.869333 16.597333-6.869333h13.077334a75.392 75.392 0 0 0 76.650666-71.616 72.490667 72.490667 0 0 0-21.056-52.458667 73.301333 73.301333 0 0 0-52.437333-21.632h-16.234667c-12.906667 0-23.381333-10.410667-23.381333-23.253333v-124.522667c0-12.842667 10.453333-23.253333 23.381333-23.253333h101.802667c6.208-0.021333 12.16 2.410667 16.576 6.784 4.373333 4.373333 6.826667 10.282667 6.826667 16.469333v11.52a75.349333 75.349333 0 0 0 72.085333 76.245334 73.301333 73.301333 0 0 0 52.778667-20.778667 72.512 72.512 0 0 0 21.909333-52.117333v-14.869334c-0.042667-6.165333 2.410667-12.074667 6.784-16.426666 4.352-4.373333 10.304-6.826667 16.490667-6.826667h101.909333c12.906667 0 23.381333 10.410667 23.381333 23.253333v147.776h37.333334a73.301333 73.301333 0 0 1 52.416 21.696 72.490667 72.490667 0 0 1 20.970666 52.48 75.392 75.392 0 0 1-76.650666 71.530667z"  horiz-adv-x="1024" />

    
    <glyph glyph-name="fenzucopy3" unicode="&#58907;" d="M398.394514 837.485714h214.396343l-282.0096-276.6848L230.078171 661.650286zM356.469029 433.824914l212.816457 211.616915 96.694857-98.069943-218.375314-211.616915zM466.7392 206.204343l245.906286 239.996343 96.402285-101.522286-244.706742-240.493714zM219.428571 70.8608l127.853715 134.846171 119.456914-120.0128-126.683429-135.343542zM453.485714-87.274057l112.201143 97.8944 119.427657-97.8944z"  horiz-adv-x="1024" />

    
    <glyph glyph-name="fenzu10" unicode="&#58908;" d="M0 896m512 0l0 0q512 0 512-512l0 0q0-512-512-512l0 0q-512 0-512 512l0 0q0 512 512 512Z"  horiz-adv-x="1024" />

    
    <glyph glyph-name="fenzucopy8" unicode="&#58909;" d="M707.265719 189.299246a158.543339 158.543339 0 0 0 55.825617-25.741224l37.782043-27.753912 13.24137 10.028131V548.016792H706.912616v-358.752856h0.423724z m-156.671892 407.834201h107.237443V648.580584h-107.237443v-51.447137z m0-451.054033l23.304812 17.231436a160.167614 160.167614 0 0 0 83.932631 30.366876V547.981481h-107.237443v-401.902067z m313.237853 32.273633a159.81451 159.81451 0 0 0 107.237443 11.193371V547.981481h-107.237443v-369.734365 0.105931z m0 470.47471v-51.447137h107.237443V648.827757h-107.237443z m-156.671892-51.447137h107.237443V648.827757h-107.237443v-51.447137z m-626.475706 0h107.237444V648.827757H80.825324v-51.447137h-0.141242z m156.671892-436.25901l34.356942-25.705913 37.782043 27.753912a156.42472 156.42472 0 0 0 35.098459 19.314745V547.981481H237.497216v-387.248284l-0.141242 0.388413zM394.063177 597.38062h107.237443V648.827757H394.063177v-51.447137z m-313.237853-414.543163a159.673269 159.673269 0 0 0 107.237443 3.636963V547.981481H80.825324v-365.108713z m313.202542 10.840269h9.957511c34.10977-0.03531 67.301471-10.840268 94.525727-30.719979l2.789516-2.118619V548.016792H394.063177V193.677726zM237.532526 596.992206h107.237443V648.474653H237.497216v-51.447136zM800.873379-127.999294a118.889849 118.889849 0 0 0-70.51471 22.881088l-39.759421 28.954463a38.135146 38.135146 0 0 1-44.844107 0l-39.759421-28.954463a119.913848 119.913848 0 0 0-140.888179 0l-39.759421 28.954463a38.135146 38.135146 0 0 1-44.844107 0l-39.75942-28.954463a119.913848 119.913848 0 0 0-140.888179 0l-39.759421 28.954463a38.135146 38.135146 0 0 1-44.844107 0l-51.411827-37.817354a40.606869 40.606869 0 0 0-55.754996 7.415168 37.852664 37.852664 0 0 0 7.62703 54.0601l51.447137 37.782043a119.913848 119.913848 0 0 0 140.888178 0l39.794731-28.919152a38.135146 38.135146 0 0 1 44.808797 0l39.759421 28.954463a119.913848 119.913848 0 0 0 140.888179 0l39.794731-28.954463a38.135146 38.135146 0 0 1 44.808797 0l39.75942 28.954463a119.913848 119.913848 0 0 0 140.888179 0l39.794731-28.954463a38.135146 38.135146 0 0 1 44.808797 0l39.759421 28.954463a119.913848 119.913848 0 0 0 140.888178 0l39.794732-28.954463c11.299303-8.333236 17.196126-21.892399 15.395299-35.557493-1.765516-13.700404-10.946199-25.423431-24.046328-30.719979a40.78342 40.78342 0 0 0-39.476938 4.802204l-39.759421 28.954463a38.135146 38.135146 0 0 1-44.844107 0l-39.724111-28.954463a118.889849 118.889849 0 0 0-70.267537-22.881088zM794.941245 13.241988a112.533991 112.533991 0 0 0-69.314159 23.834466l-39.088525 30.119704a35.839975 35.839975 0 0 1-44.03197 0l-39.088524-30.119704a112.639922 112.639922 0 0 0-138.522388 0l-39.088524 30.119704a35.839975 35.839975 0 0 1-44.03197 0l-39.088525-30.119704a112.639922 112.639922 0 0 0-138.522387 0l-39.088525 30.119704a35.839975 35.839975 0 0 1-44.031969 0l-48.728243-38.947284a38.417629 38.417629 0 0 0-54.801617 7.69765c-13.064819 17.65516-9.710338 42.866729 7.485788 56.284651L75.564086 131.531562a112.639922 112.639922 0 0 0 138.522387 0l39.088525-30.119704c13.029508-10.063441 31.002461-10.063441 44.031969 0l39.088525 30.119704a112.639922 112.639922 0 0 0 138.487077 0l39.123835-30.119704c13.029508-10.063441 30.967151-10.063441 44.03197 0l39.088525 30.119704a112.639922 112.639922 0 0 0 138.487077 0l39.088524-30.119704c13.064819-10.063441 31.002461-10.063441 44.06728 0l39.088525 30.119704a112.639922 112.639922 0 0 0 138.487077 0l39.088525-30.119704c17.196126-13.417922 20.550607-38.59418 7.485788-56.284651-13.064819-17.65516-37.570181-21.115572-54.766307-7.697649l-39.088525 30.119703a35.839975 35.839975 0 0 1-44.06728 0l-39.088525-30.119703a112.533991 112.533991 0 0 0-70.867813-24.22288zM1005.637927 811.255231V896h-220.3364v-84.744769H261.896647V896h-220.3364v-84.744769H0v-66.913057h1059.309614V811.255231h-53.671687z m-899.07138 0v17.831712h90.182559V811.255231H106.566547z m743.74128 0v17.831712h90.041318V811.255231h-90.041318z"  horiz-adv-x="1059" />

    
    <glyph glyph-name="fenzucopy9" unicode="&#58910;" d="M160 800h704a96 96 0 0 0 96-96v-736a96 96 0 0 0-96-96H160a96 96 0 0 0-96 96V704a96 96 0 0 0 96 96zM256 544h512v-96H256zM256 352h512v-96H256zM256 160h256v-96H256zM512 736m-160 0a160 160 0 1 1 320 0 160 160 0 1 1-320 0ZM512 736m-64 0a64 64 0 1 1 128 0 64 64 0 1 1-128 0Z"  horiz-adv-x="1024" />

    
    <glyph glyph-name="lujing" unicode="&#58911;" d=""  horiz-adv-x="1024" />

    
    <glyph glyph-name="fenzu11" unicode="&#58912;" d=""  horiz-adv-x="1665" />

    
    <glyph glyph-name="fenzu12" unicode="&#58913;" d=""  horiz-adv-x="1665" />

    
    <glyph glyph-name="fenzucopy10" unicode="&#58914;" d="M952.88019 462.042213C953.02241 670.366026 802.525237 849.335637 594.485864 888.303909 386.36116 927.27218 179.544879 815.1744 101.864331 621.357024c-77.680548-193.788932-4.266599-414.54277 174.845232-525.730343a293.542019 293.542019 0 0 1-66.302951-185.369509c0-21.133888 17.407724-38.257172 38.88294-38.257172h525.133019c21.50366 0 38.911384 17.123284 38.911384 38.257172a293.542019 293.542019 0 0 1-66.331394 185.369509c127.997973 79.301855 205.678521 217.624999 205.849185 366.415532z m-289.360752-258.01547a202.521238 202.521238 0 0 0-147.823437-63.742991 202.521238 202.521238 0 0 0-147.823437 63.714547 37.830512 37.830512 0 0 0-10.808718 38.45628c3.982159 13.795337 15.501977 24.234283 29.809306 27.021794a39.252712 39.252712 0 0 0 38.058064-13.738449 123.731374 123.731374 0 0 1 90.508789-39.16738c34.417233 0 67.241602 14.221997 90.508789 39.16738 9.386518 10.097618 23.551627 14.506437 37.147856 11.576706 13.596229-2.929731 24.575611-12.799797 28.785322-25.855591 4.209711-13.055793 1.023984-27.306234-8.362534-37.432296zM526.220279 327.103905a199.107959 199.107959 0 1 0 199.107958 199.051071A199.307067 199.307067 0 0 0 526.220279 327.103905zM639.996255 526.211864a113.775976 113.775976 0 1 0-227.551953 0 113.775976 113.775976 0 0 0 227.551953 0z"  horiz-adv-x="1024" />

    
    <glyph glyph-name="fenzu13" unicode="&#58915;" d="M0 896m85.333333 0l853.333334 0q85.333333 0 85.333333-85.333333l0-853.333334q0-85.333333-85.333333-85.333333l-853.333334 0q-85.333333 0-85.333333 85.333333l0 853.333334q0 85.333333 85.333333 85.333333ZM512 661.333333c-153.173333 0-277.333333-124.16-277.333333-277.333333s124.16-277.333333 277.333333-277.333333 277.333333 124.16 277.333333 277.333333a277.333333 277.333333 0 0 1-277.333333 277.333333z m-13.269333-428.181333V360.106667l-92.8-3.157334 149.248 178.282667-19.797334-126.997333 82.901334 3.2-119.552-178.304z"  horiz-adv-x="1024" />

    
    <glyph glyph-name="lujingcopy" unicode="&#58916;" d=""  horiz-adv-x="1024" />

    
    <glyph glyph-name="xingzhuangcopy5" unicode="&#58917;" d="M939.119391 539.661337l-346.391607-180.9194c-31.97686-16.500411-51.490644-49.530489-51.490644-86.305341v-349.756052c0-37.535509 38.237655-62.315382 70.214515-45.054313l346.391606 180.890143a97.510407 97.510407 0 0 1 51.490645 86.305342v349.02465c0 38.296167-38.237655 62.315382-70.214515 45.785715z m-507.884991-180.070974L84.842794 539.661337c-31.97686 16.500411-70.214515-7.518804-70.214515-45.025057v-351.072575c0-36.745596 19.513784-69.746418 51.490644-86.246829l346.391607-180.041718c31.97686-16.500411 70.214515 8.250205 70.214514 45.756459V273.314278c0 36.774852-19.513784 69.775674-51.490644 86.305341z m467.745693 264.474672c16.207851 8.572022 23.931447 23.404838 22.380877 37.506254 1.550571 14.832816-6.14377 28.904975-22.380877 37.506253L549.809162 883.507668C534.361969 892.07969 515.813634 896 497.294556 896c-18.548334 0-37.096669-3.92031-52.543862-12.492332L95.609019 699.838199c-16.237107-8.572022-23.17079-23.404838-22.410132-37.506253-0.760657-14.832816 6.173026-29.694889 22.410132-38.266911l349.141675-183.669468c15.447193-8.572022 33.995528-12.492332 52.543862-12.492333 18.519078 0 37.067413 3.92031 52.514606 12.492333l349.170931 183.669468z"  horiz-adv-x="1024" />

    
    <glyph glyph-name="fenzucopy11" unicode="&#58918;" d="M583.256276 279.022345l178.776276 346.253241a134.638345 134.638345 0 0 0 120.090482 73.198345H882.758621V815.280552C882.758621 859.700966 842.857931 896 793.882483 896H88.876138C39.90069 896 0 859.842207 0 815.280552v-862.561104C0-91.700966 39.90069-128 88.876138-128h705.006345C842.857931-128 882.758621-91.842207 882.758621-47.13931V80.331034h-179.411862a134.744276 134.744276 0 0 0-114.334897 63.205518l-0.141241 0.247172-0.105931 0.247173a136.615724 136.615724 0 0 0-5.508414 134.920827z m-113.593379-161.368276c-7.273931-7.168-17.302069-11.581793-28.354207-11.581793H160.485517a39.90069 39.90069 0 0 0-40.112551 39.476965c0 10.875586 4.484414 20.762483 11.758344 27.895173 7.273931 7.168 17.302069 11.652414 28.354207 11.652414h280.823173a39.90069 39.90069 0 0 0 40.112551-39.547587c0-10.840276-4.484414-20.727172-11.758344-27.895172z m0 236.402759c-7.273931-7.168-17.302069-11.581793-28.354207-11.581794H160.485517a39.90069 39.90069 0 0 0-40.112551 39.476966c0 10.875586 4.484414 20.762483 11.758344 27.895172 7.273931 7.168 17.302069 11.652414 28.354207 11.652414h280.823173a39.90069 39.90069 0 0 0 40.112551-39.547586c0-10.840276-4.484414-20.727172-11.758344-27.895172zM160.485517 580.113655a39.90069 39.90069 0 0 0-40.112551 39.476966c0 10.875586 4.484414 20.762483 11.758344 27.895172 7.273931 7.168 17.302069 11.617103 28.354207 11.617104h481.421242a39.90069 39.90069 0 0 0 40.112551-39.512276c0-10.840276-4.484414-20.727172-11.758344-27.895173-7.273931-7.168-17.302069-11.581793-28.354207-11.581793H160.485517zM1123.575172 238.203586L947.976828 583.503448A53.671724 53.671724 0 0 1 900.343172 613.517241c-20.056276 0-38.276414-11.581793-47.668965-30.013793L677.252414 238.168276a59.745103 59.745103 0 0 1 2.330483-57.873655c10.098759-16.136828 26.835862-25.847172 45.303172-25.847173h350.914207c18.46731 0 35.451586 9.710345 45.550345 25.847173 10.593103 17.478621 11.440552 39.653517 2.224551 57.908965z m-262.638344 194.913104a39.265103 39.265103 0 0 0 78.565517 0v-78.035862a39.265103 39.265103 0 0 0-78.565517 0v78.035862z m39.300413-210.90869a39.371034 39.371034 0 0 0-39.300413 39.547586c0 21.786483 17.725793 39.265103 39.300413 39.265104 21.786483 0 39.512276-17.725793 39.512276-39.300414a39.547586 39.547586 0 0 0-39.547586-39.547586z"  horiz-adv-x="1129" />

    
    <glyph glyph-name="lujingcopy2" unicode="&#58919;" d="M415.312213 839.202133C255.73888 705.194667 162.896213 616.448 23.871147 462.267733c-34.542933-45.8752-28.945067-131.1744 0-131.1744h129.6384v-327.918933c0-48.2304 6.826667-131.1744 56.968533-131.1744h202.308267v327.918933h259.2768V-128h186.914133c37.751467 0 72.362667 34.7136 72.362667 131.1744V331.093333h129.6384c38.570667 0 44.817067 92.808533 0 131.1744-127.249067 130.935467-270.472533 257.570133-409.088 372.599467-109.4656 86.459733-168.891733 75.025067-236.578134 4.334933z"  horiz-adv-x="1092" />

    
    <glyph glyph-name="fenzucopy12" unicode="&#58920;" d=""  horiz-adv-x="1665" />

    
    <glyph glyph-name="xingzhuangcopy6" unicode="&#58921;" d="M1010.976239-52.31746l-223.962469 223.913707A441.244585 441.244585 0 0 1 887.36534 452.268568c0 244.588666-198.947719 443.731432-443.68267 443.731432C199.094004 896 0 697.00352 0 452.268568c0-244.734951 198.947719-443.731432 443.731432-443.731431 106.300497 0 204.067697 37.644029 280.623559 100.35157l223.913707-223.913707a44.226858 44.226858 0 0 1 31.402532-12.970611 44.226858 44.226858 0 0 1 31.305009 75.678151zM88.746286 452.268568c0 195.729447 159.255698 354.985145 354.985146 354.985146 195.631923 0 354.936384-159.255698 354.936383-354.985146 0-195.680685-159.30446-354.985145-354.985145-354.985145S88.746286 256.587883 88.746286 452.268568z"  horiz-adv-x="1024" />

    
    <glyph glyph-name="xingzhuangcopy7" unicode="&#58922;" d="M512 896C229.216 896 0 666.784 0 384s229.216-512 512-512 512 229.216 512 512A512 512 0 0 1 512 896z m-24.512-790.496v234.432l-171.328-5.856 275.552 329.152L555.2 428.8l153.024 5.856-220.704-329.152z"  horiz-adv-x="1024" />

    
    <glyph glyph-name="xingzhuangcopy8" unicode="&#58923;" d="M479.979243-122.354162c19.926486-7.527784 42.094703-7.527784 62.021189 0l127.750919 60.056216H356.877838l123.101405-60.056216z m208.176433 188.000865H341.877622c-20.67373 0-34.539243-12.952216-34.539244-32.186811 0-8.773189 3.653189-17.020541 10.073946-23.192216 6.559135-6.060973 15.276973-9.40973 24.465298-9.132973h346.167351c19.539027 0 34.539243 13.920865 34.539243 32.186811 0 18.376649-14.861838 32.325189-34.42854 32.325189z m117.289513 717.602594C723.718919 858.361081 625.996108 896 510.976 896c-114.854054 0-212.715243-37.638919-293.306811-112.750703C137.216 707.971459 96.864865 617.804108 96.864865 512.470486c0.276757-14.308324 0.996324-28.616649 2.269405-42.924972 0-2.103351 2.269405-7.527784 2.269406-9.741838 2.269405-12.952216 4.538811-24.686703 6.918919-35.424865l1.162378-3.210379c0.249081-0.470486 0.249081-0.249081 0.249081 0.276757l0.885622-3.487135c3.404108-12.066595 7.555459-23.911784 12.592432-35.397189v-2.103351c0-2.075676 1.134703-2.075676 2.269406-2.075676 5.175351-12.841514 10.848865-25.295568 17.297297-37.638919 0-2.103351 1.107027-2.103351 2.269405-2.103351 14.861838-26.153514 32.131459-50.923243 51.808865-74.143136l1.134703-1.107027 1.134702-1.107027 29.88973-27.869405 6.918919-6.420757 8.081297-7.527784 6.946595-4.317405 20.67373-15.055568 3.542486-3.210378c2.269405-2.075676 3.514811-2.075676 4.538811-2.075676 10.350703-9.520432 19.289946-20.369297 26.485622-32.214486 6.918919-11.845189 12.592432-20.341622 18.404324-25.766054 5.673514-5.424432 16.134919-7.527784 32.159135-7.527784h311.738811c15.000216 0 26.457946 2.103351 32.131459 7.527784 5.701189 5.424432 11.485405 13.920865 17.297298 25.766054 6.420757 12.730811 15.885838 23.690378 27.620324 32.214486l3.514811 2.075676 4.538811 3.210378 19.539027 15.055568c0 3.210378 4.566486 4.317405 6.946594 4.317405 5.811892 5.424432 5.811892 8.634811 11.485406 11.84519 2.380108 2.103351-7.057297-6.642162 3.51481 2.103351a372.514595 372.514595 0 0 1 29.88973 27.869405l1.134703 1.107027 1.134703 0.996325 27.620324 35.424865a219.191351 219.191351 0 0 1 24.077838 37.611243c2.269405 0 2.269405 1.107027 2.269405 2.103351 6.559135 12.177297 12.371027 24.76973 17.297297 37.638919l2.269406 2.075676v2.103351c3.404108 9.741838 8.053622 21.448649 12.592432 35.397189 0 3.210378 0 6.420757 2.269406 6.420757l6.918919 35.397189c0 2.103351 0 7.527784 2.297081 9.631135 2.269405 15.027892 2.269405 30.083459 2.269405 44.004325 0.276757 105.499676-40.102054 195.805405-121.689946 271.055567z m-49.539459-274.985513c-19.566703 0-34.594595 16.162595-34.594595 32.214486 0 47.242378-18.376649 85.988324-55.212973 117.068108-36.808649 32.186811-75.914378 47.242378-117.289513 47.242379-19.539027 0-34.539243 12.952216-35.673946 31.079784-0.138378 8.773189 3.542486 17.158919 10.101621 23.192216 6.531459 6.060973 15.36 9.382054 24.437622 9.132973 63.321946 0 119.697297-20.48 169.098378-62.270271 49.456432-40.849297 73.672649-95.619459 73.672649-165.445189-0.636541-17.906162-15.885838-32.103784-34.566919-32.214486z"  horiz-adv-x="1024" />

    
    <glyph glyph-name="xingzhuang2" unicode="&#58924;" d="M389.9392 723.6096h346.5216V807.7312H389.9392v-84.1216z m519.7824 0h86.8864c23.552 0 43.1616-19.5072 43.1616-44.5952v-678.5536a44.032 44.032 0 0 0-43.5712-44.5952H130.2016a43.8784 43.8784 0 0 0-43.5712 44.5952V679.1168a44.032 44.032 0 0 0 43.7248 44.5952H218.624V807.936H130.3552C57.856 807.8848 0 750.0288 0 679.2704v-678.656C0-70.2976 58.0096-128 130.2016-128h865.9968C1068.3904-128 1126.4-70.144 1126.4 0.6144V679.1168a129.0752 129.0752 0 0 1-129.6384 128.6144H909.824l-0.1024-84.1216zM259.8912 854.016c0 23.0912 19.2512 41.9328 43.3152 41.9328 23.9104 0 43.3152-18.688 43.3152-41.9328v-176.64a42.5984 42.5984 0 0 0-43.3152-41.984 42.5984 42.5984 0 0 0-43.3152 41.984V854.016z m519.9872 0a42.496 42.496 0 0 0 43.3152 41.7792c23.9616 0 43.3152-18.688 43.3152-41.7792v-176.5376a42.496 42.496 0 0 0-43.3152-41.7792c-23.9104 0-43.3152 18.688-43.3152 41.7792V854.016zM259.8912 436.7872c0 23.1936 19.5072 41.984 43.7248 41.984h519.3216c24.064 0 43.7248-18.6368 43.7248-41.984 0-23.296-19.5072-42.0864-43.7248-42.0864H303.616c-24.2176 0-43.7248 18.688-43.7248 42.0352z m0-243.5072c0 23.2448 19.5072 42.0864 43.7248 42.0864h519.3216c24.064 0 43.7248-18.688 43.7248-42.0864 0-23.1936-19.5072-42.0352-43.7248-42.0352H303.616c-24.2176 0-43.7248 18.688-43.7248 42.0352z"  horiz-adv-x="1126" />

    
    <glyph glyph-name="xingzhuangcopy9" unicode="&#58925;" d="M180.304326-37.207855V288.983973c0 195.123469 158.032944 353.383962 353.127968 353.383961 195.095025 0 353.127969-158.260493 353.127969-353.383961v-326.191828h120.544207a45.367629 45.367629 0 0 0 0-90.763701H45.367629a45.367629 45.367629 0 0 0 0 90.763701h134.936697z m378.698814 537.158412l-174.18894-287.081803h139.288576l-34.871921-215.318464 174.18894 287.081804h-139.317019l34.900364 215.318463z m267.114358 315.383239c16.355101-9.528624 21.958501-30.576928 12.515207-46.932029l-62.604483-108.939197-59.191244 34.274604 62.604483 108.939196a34.047054 34.047054 0 0 0 46.476931 12.657426h0.199106zM533.346963 896c20.479431 0 37.062082-15.444904 37.062082-34.587484v-123.44546h-74.09572V861.497847c0 19.057248 16.554207 34.502153 37.033638 34.502153zM240.747091 815.333796a34.132385 34.132385 0 0 0 46.647593-12.543651l62.632927-108.939196-59.191245-34.303048-62.632926 108.939197a34.359934 34.359934 0 0 0 12.515207 46.846698zM26.481043 600.015333a34.047054 34.047054 0 0 0 46.647593 12.515208l108.484098-62.974251-34.132385-59.447237-108.484098 63.088025a34.331491 34.331491 0 0 0-12.515208 46.818255z m1013.845615 0a34.473709 34.473709 0 0 0-12.515208-46.93203l-108.455654-62.860476-34.160828 59.447238 108.455654 62.97425a34.132385 34.132385 0 0 0 46.590705-12.429877c0-0.113775 0.085331-0.113775 0.085331-0.199105z"  horiz-adv-x="1052" />

    
    <glyph glyph-name="xingzhuang3" unicode="&#58926;" d="M1010.976239-52.31746l-223.962469 223.913707A441.244585 441.244585 0 0 1 887.36534 452.268568c0 244.588666-198.947719 443.731432-443.68267 443.731432C199.094004 896 0 697.00352 0 452.268568c0-244.734951 198.947719-443.731432 443.731432-443.731431 106.300497 0 204.067697 37.644029 280.623559 100.35157l223.913707-223.913707a44.226858 44.226858 0 0 1 31.402532-12.970611 44.226858 44.226858 0 0 1 31.305009 75.678151zM88.746286 452.268568c0 195.729447 159.255698 354.985145 354.985146 354.985146 195.631923 0 354.936384-159.255698 354.936383-354.985146 0-195.680685-159.30446-354.985145-354.985145-354.985145S88.746286 256.587883 88.746286 452.268568z"  horiz-adv-x="1024" />

    
    <glyph glyph-name="fenzucopy13" unicode="&#58927;" d=""  horiz-adv-x="1665" />

    
    <glyph glyph-name="MaskCopy" unicode="&#58928;" d="M0 896m512 0l0 0q512 0 512-512l0 0q0-512-512-512l0 0q-512 0-512 512l0 0q0 512 512 512ZM293.888 430.638545h28.206545v-37.98109h22.900364v-16.756364c15.080727 18.711273 28.206545 41.053091 39.377455 66.746182l24.296727-11.729455c-7.261091-16.756364-15.080727-32.395636-23.458909-46.359273l18.432 5.585455c2.792727-19.549091 9.495273-37.422545 20.386909-53.341091 8.657455 15.36 14.801455 32.954182 18.432 53.061818l23.738182-4.747636a906.030545 906.030545 0 0 1-30.161455 44.962909l22.341818 13.963636c19.269818-25.413818 34.071273-47.476364 44.683637-66.466909l-23.179637-16.197818a335.941818 335.941818 0 0 1-10.891636 19.269818c-5.026909-25.972364-13.405091-48.314182-24.855273-66.746182 15.639273-14.801455 35.746909-27.368727 60.043637-37.422545l-15.080728-26.251636c-25.413818 10.891636-46.359273 24.296727-62.836363 40.215272-18.432-19.549091-41.890909-33.233455-70.376728-41.611636l-16.197818 25.693091c27.648 7.540364 49.989818 20.386909 66.746182 38.260364a155.450182 155.450182 0 0 0-27.089454 62.55709c-3.909818-5.864727-7.540364-11.170909-11.450182-16.197818l-22.900364 16.197818v-8.936727h-22.900364v-28.485818c10.333091 2.234182 20.107636 4.747636 29.60291 6.981818v-27.368727c-9.495273-2.792727-19.549091-5.306182-29.60291-7.540364v-59.485091h-28.206545v53.620364c-15.080727-2.792727-30.440727-5.306182-46.638545-7.540364l-3.909819 28.485819c17.873455 2.234182 34.629818 4.468364 50.548364 7.26109v34.071273h-42.170182l-6.144 25.693091c6.423273 14.522182 12.567273 32.954182 18.432 55.016727h-20.386909v27.927273h26.810182c2.234182 10.612364 4.189091 21.783273 6.423273 33.512727l27.648-4.189091a2720.814545 2720.814545 0 0 0-5.864728-29.323636h46.08v-27.927273h-52.782545c-5.306182-20.386909-10.891636-38.539636-17.035636-54.458181h18.990545v37.98109z m60.043636 45.242182h54.458182a211.456 211.456 0 0 1-12.846545 27.648l29.323636 5.026909c4.468364-9.495273 8.657455-20.386909 12.567273-32.674909h60.043636v-28.485818h-143.546182v28.485818z m173.986909-37.422545h105.844364c1.675636 14.522182 2.792727 29.323636 3.072 44.962909v25.134545h29.602909v-18.432c0-18.152727-1.117091-35.467636-3.072-51.665454h111.988364v-28.485818h-105.285818c20.107636-58.368 57.250909-103.330909 111.709091-135.168l-18.432-24.017455c-52.503273 32.395636-89.646545 77.358545-110.871273 134.888727-18.990545-62.277818-56.413091-108.078545-112.267637-137.402181l-18.711272 24.576c56.413091 27.368727 92.16 73.169455 107.240727 137.122909h-100.817455v28.485818z"  horiz-adv-x="1024" />

    
    <glyph glyph-name="MaskCopy1" unicode="&#58929;" d="M0 896m512 0l0 0q512 0 512-512l0 0q0-512-512-512l0 0q-512 0-512 512l0 0q0 512 512 512ZM268.660364 442.647273h85.178181v12.008727h-105.844363v24.576h105.844363v13.405091c-26.530909-1.117091-54.178909-2.234182-83.223272-3.351273l-4.747637 23.179637c72.331636 1.954909 136.843636 5.585455 193.256728 11.170909l8.657454-23.458909c-26.251636-2.234182-54.737455-4.189091-84.898909-5.864728v-15.080727h106.402909v-24.576h-106.402909v-12.008727h85.457455v-97.186909h-85.457455v-13.125819h96.628364v-22.900363h-96.628364v-13.684364h110.592v-24.855273H244.363636v24.855273h109.474909v13.684364H258.327273v22.900363h95.511272v13.125819h-85.178181v97.186909z m18.804363-20.293818v-23.272728h69.818182v23.272728h-69.818182z m93.090909 0v-23.272728h69.818182v23.272728h-69.818182z m-93.090909-34.909091v-23.272728h69.818182v23.272728h-69.818182z m93.090909 0v-23.272728h69.818182v23.272728h-69.818182zM524.474182 453.538909v-28.485818h100.817454c-15.080727-63.953455-50.827636-109.754182-107.240727-137.122909l18.711273-24.576c55.854545 29.323636 93.277091 75.124364 112.267636 137.402182 21.224727-57.530182 58.368-102.493091 110.871273-134.888728l18.432 24.017455c-54.458182 31.837091-91.601455 76.8-111.709091 135.168h105.285818v28.485818h-111.988363c1.954909 16.197818 3.072 33.512727 3.072 51.665455V523.636364h-29.60291v-25.134546a460.939636 460.939636 0 0 0-3.072-44.962909h-105.844363z"  horiz-adv-x="1024" />

    
    <glyph glyph-name="MaskCopy2" unicode="&#58930;" d="M0 896m512 0l0 0q512 0 512-512l0 0q0-512-512-512l0 0q-512 0-512 512l0 0q0 512 512 512ZM501.853091 383.255273v-86.574546c6.144 2.792727 12.288 5.585455 18.432 8.657455l4.747636-25.134546a1162.554182 1162.554182 0 0 0-55.575272-19.828363l-7.540364 24.855272c7.819636 2.513455 11.729455 7.540364 11.729454 14.801455v178.176c58.368 8.657455 104.727273 18.432 139.077819 29.602909l15.918545-23.179636a676.468364 676.468364 0 0 0-47.755636-13.405091c0.279273-23.179636 1.117091-43.287273 2.234182-60.322909h55.296v-27.648h-53.061819c0.837818-10.053818 1.954909-18.432 3.630546-25.693091 4.468364-24.296727 9.216-41.611636 14.522182-51.944727 5.026909-10.612364 8.936727-16.197818 11.170909-16.197819 1.954909 0 4.189091 13.963636 6.423272 41.611637l24.017455-13.125818c-5.585455-41.611636-14.242909-62.557091-25.693091-62.557091-9.495273 0-19.269818 7.540364-29.602909 22.062545-10.333091 14.522182-18.990545 37.701818-26.251636 68.980364-2.513455 10.891636-4.468364 23.179636-6.144 36.864h-55.575273z m50.827636 81.826909c-15.639273-3.072-32.674909-6.144-50.827636-8.936727v-45.242182h53.061818c-1.117091 16.756364-1.954909 34.909091-2.234182 54.178909z m-6.423272-147.176727c15.080727-18.990545 26.530909-36.026182 34.629818-50.548364l-21.783273-15.080727c-8.378182 15.36-19.269818 32.395636-32.674909 51.386181l19.828364 14.24291zM445.160727 512l26.530909-12.567273a322.059636 322.059636 0 0 0-25.693091-58.647272v-189.067637h-28.485818v146.618182a447.813818 447.813818 0 0 0-24.017454-27.648l-9.495273 30.72c27.368727 31.278545 47.755636 68.142545 61.160727 110.592z"  horiz-adv-x="1024" />

    
    <glyph glyph-name="MaskCopy3" unicode="&#58931;" d="M0 896m53.268004 0l1225.164086 0q53.268004 0 53.268003-53.268004l0-712.45955q0-53.268004-53.268003-53.268003l-1225.164086 0q-53.268004 0-53.268004 53.268003l0 712.45955q0 53.268004 53.268004 53.268004ZM1331.700093 505.438997v-85.754828C1274.197283 471.200987 1224.25853 496.489972 1183.002461 496.489972c-31.601243 0-47.828009-9.514997-77.944407-40.683438-1.265115-1.311725-8.003518-8.323126-9.974433-10.360627-47.95452-49.519268-88.078644-71.305881-159.337916-71.305881-65.05355 0-106.895566 17.045761-175.61795 60.792109l-8.789221 5.606458C685.738988 482.360634 650.901713 496.489972 592.606542 496.489972c-55.45865 0-76.90568-12.091837-108.333803-49.346147l-5.180313-6.17243c-39.944344-47.528376-71.512295-66.831369-134.981122-66.831369-64.7406 0-104.272117 19.243066-167.567823 68.11646l-8.689343 6.711768C121.763998 484.478037 97.234082 496.489972 59.926504 496.489972c-21.526932 0-41.462482-3.529005-59.926504-10.733503v69.907597c18.956751 4.92729 38.945569 7.410911 59.926504 7.410911 55.811551 0 91.78077-17.611734 148.564463-61.364741l8.742611-6.751719c52.628788-40.636828 80.567856-54.233486 126.877726-54.233486 40.497 0 55.511918 9.182072 84.003642 43.080498l5.260215 6.265649C476.468976 541.16851 515.341302 563.074977 592.606542 563.074977c73.935989 0 119.160524-18.33751 194.528091-66.398567l8.749269-5.579823c58.941046-37.52065 90.489021-50.371556 139.855144-50.371556 50.471434 0 74.961398 13.303684 111.509907 51.044064 1.857722 1.917648 8.556173 8.889098 9.921166 10.3007 41.449165 42.900719 72.331291 61.005181 125.832342 61.005182 46.762649 0 96.13543-19.376236 148.697632-57.63598zM1331.700093 314.393301v-85.754827c-57.50281 51.516818-107.441564 76.805803-148.697632 76.805803-31.601243 0-47.828009-9.514997-77.944407-40.683438-1.265115-1.311725-8.003518-8.323126-9.974433-10.360627-47.95452-49.512609-88.078644-71.305881-159.337916-71.305881-65.05355 0-106.895566 17.045761-175.61795 60.792109l-8.789221 5.606457c-65.599547 41.822041-100.436821 55.951379-158.731992 55.95138-55.45865 0-76.90568-12.091837-108.333803-49.346147l-5.180313-6.17243c-39.944344-47.521718-71.512295-66.831369-134.981122-66.831369-64.7406 0-104.272117 19.243066-167.567823 68.116459l-8.689343 6.711769c-46.09014 35.516441-70.620056 47.521718-107.927634 47.521718-21.526932 0-41.462482-3.529005-59.926504-10.733503v69.907596c18.956751 4.92729 38.945569 7.410911 59.926504 7.410911 55.811551 0 91.78077-17.611734 148.564463-61.358082l8.742611-6.758377c52.628788-40.636828 80.567856-54.233486 126.877726-54.233487 40.497 0 55.511918 9.182072 84.003642 43.080498-0.379535-0.439461 4.028393 4.814096 5.260215 6.272308 43.093815 51.090674 81.966141 72.997141 159.231381 72.99714 73.935989 0 119.160524-18.33751 194.528091-66.391908-0.213072 0.13317 6.79167-4.341342 8.749269-5.579823 58.941046-37.527309 90.489021-50.378215 139.855144-50.378215 50.471434 0 74.961398 13.303684 111.509907 51.044065 1.857722 1.917648 8.556173 8.889098 9.921166 10.307359 41.449165 42.900719 72.331291 60.998523 125.832342 60.998522 46.762649 0 96.13543-19.376236 148.697632-57.63598zM1331.700093 77.004443h-52.888469c-35.716197 23.657652-67.770218 35.34332-95.809163 35.34332-29.723546 0-45.843776-8.409686-72.710825-35.34332h-97.879957c11.219573 7.6373 22.319294 17.698294 34.837274 30.629102 1.857722 1.91099 8.556173 8.88244 9.921166 10.3007 41.449165 42.900719 72.331291 60.998523 125.832342 60.998523 46.762649 0 96.13543-19.376236 148.697632-57.63598V77.004443z m-614.220034 0c-45.55746 25.994786-77.458336 35.34332-124.873517 35.34332-47.814692 0-70.353716-8.988976-95.795847-35.34332h-89.929707c6.591915 5.90609 13.403561 13.350293 21.233958 22.665535-0.379535-0.44612 4.028393 4.807437 5.260215 6.258991 43.093815 51.097333 81.966141 73.003799 159.231381 73.003799 73.935989 0 119.160524-18.33751 194.528091-66.391908-0.213072 0.13317 6.79167-4.341342 8.749269-5.579824 19.842331-12.631175 36.575143-22.465781 51.936304-29.956593h-130.340147z m-565.885979 0c-36.129024 26.134614-58.994314 35.34332-91.667576 35.34332-21.526932 0-41.462482-3.529005-59.926504-10.733503v69.907597c18.956751 4.92729 38.945569 7.410911 59.926504 7.410911 55.811551 0 91.78077-17.611734 148.564463-61.358082l8.742611-6.758378c18.803605-14.515531 34.451081-25.581959 48.913344-33.811865h-114.552842z"  horiz-adv-x="1665" />

    
    <glyph glyph-name="MaskCopy4" unicode="&#58932;" d="M0 896m53.268004 0l1225.164086 0q53.268004 0 53.268003-53.268004l0-712.45955q0-53.268004-53.268003-53.268003l-1225.164086 0q-53.268004 0-53.268004 53.268003l0 712.45955q0 53.268004 53.268004 53.268004ZM1331.700093 505.438997v-85.754828C1274.197283 471.200987 1224.25853 496.489972 1183.002461 496.489972c-31.601243 0-47.828009-9.514997-77.944407-40.683438-1.265115-1.311725-8.003518-8.323126-9.974433-10.360627-47.95452-49.519268-88.078644-71.305881-159.337916-71.305881-65.05355 0-106.895566 17.045761-175.61795 60.792109l-8.789221 5.606458C685.738988 482.360634 650.901713 496.489972 592.606542 496.489972c-55.465309 0-76.90568-12.091837-108.333803-49.346147l-5.180313-6.17243c-39.944344-47.528376-71.512295-66.831369-134.981122-66.831369-64.7406 0-104.272117 19.243066-167.567823 68.11646l-8.689343 6.711768C121.763998 484.478037 97.234082 496.489972 59.926504 496.489972c-21.526932 0-41.462482-3.529005-59.926504-10.733503v69.907597c18.956751 4.92729 38.945569 7.410911 59.926504 7.410911 55.811551 0 91.78077-17.611734 148.564463-61.364741l8.742611-6.751719c52.628788-40.636828 80.567856-54.233486 126.877726-54.233486 40.497 0 55.511918 9.182072 84.003642 43.080498l5.260215 6.265649C476.468976 541.16851 515.341302 563.074977 592.606542 563.074977c73.935989 0 119.160524-18.33751 194.528091-66.398567l8.749269-5.579823c58.941046-37.52065 90.489021-50.371556 139.855144-50.371556 50.471434 0 74.961398 13.303684 111.509907 51.044064 1.857722 1.917648 8.556173 8.889098 9.921166 10.3007 41.449165 42.900719 72.331291 61.005181 125.832342 61.005182 46.762649 0 96.13543-19.376236 148.697632-57.63598zM1331.700093 314.393301v-85.754827c-57.50281 51.516818-107.441564 76.805803-148.697632 76.805803-31.601243 0-47.828009-9.514997-77.944407-40.683438-1.265115-1.311725-8.003518-8.323126-9.974433-10.360627-47.95452-49.512609-88.078644-71.305881-159.337916-71.305881-65.05355 0-106.895566 17.045761-175.61795 60.792109l-8.789221 5.606457c-65.599547 41.822041-100.436821 55.951379-158.731992 55.95138-55.465309 0-76.90568-12.091837-108.333803-49.346147l-5.180313-6.17243c-39.944344-47.521718-71.512295-66.831369-134.981122-66.831369-64.7406 0-104.272117 19.243066-167.567823 68.116459l-8.689343 6.711769c-46.09014 35.516441-70.620056 47.521718-107.927634 47.521718-21.526932 0-41.462482-3.529005-59.926504-10.733503v69.907596c18.956751 4.92729 38.945569 7.410911 59.926504 7.410911 55.811551 0 91.78077-17.611734 148.564463-61.358082l8.742611-6.758377c52.628788-40.636828 80.567856-54.233486 126.877726-54.233487 40.497 0 55.511918 9.182072 84.003642 43.080498-0.379535-0.439461 4.028393 4.814096 5.260215 6.272308 43.093815 51.090674 81.966141 72.997141 159.231381 72.99714 73.935989 0 119.160524-18.33751 194.528091-66.391908-0.213072 0.13317 6.79167-4.341342 8.749269-5.579823 58.941046-37.527309 90.489021-50.378215 139.855144-50.378215 50.471434 0 74.961398 13.303684 111.509907 51.044065 1.857722 1.917648 8.556173 8.889098 9.921166 10.307359 41.449165 42.900719 72.331291 60.998523 125.832342 60.998522 46.762649 0 96.13543-19.376236 148.697632-57.63598zM1331.700093 77.004443h-52.888469c-35.716197 23.657652-67.770218 35.34332-95.809163 35.34332-29.723546 0-45.843776-8.409686-72.710825-35.34332h-97.879957c11.219573 7.6373 22.319294 17.698294 34.837274 30.629102 1.857722 1.91099 8.556173 8.88244 9.921166 10.3007 41.449165 42.900719 72.331291 60.998523 125.832342 60.998523 46.762649 0 96.13543-19.376236 148.697632-57.63598V77.004443z m-614.220034 0c-45.55746 25.994786-77.458336 35.34332-124.873517 35.34332-47.814692 0-70.353716-8.988976-95.795847-35.34332h-89.929707c6.591915 5.90609 13.403561 13.350293 21.233958 22.665535-0.379535-0.44612 4.028393 4.807437 5.260215 6.258991 43.093815 51.097333 81.966141 73.003799 159.231381 73.003799 73.935989 0 119.160524-18.33751 194.528091-66.391908-0.213072 0.13317 6.79167-4.341342 8.749269-5.579824 19.842331-12.631175 36.575143-22.465781 51.936304-29.956593h-130.340147z m-565.885979 0c-36.129024 26.134614-58.994314 35.34332-91.667576 35.34332-21.526932 0-41.462482-3.529005-59.926504-10.733503v69.907597c18.956751 4.92729 38.945569 7.410911 59.926504 7.410911 55.811551 0 91.78077-17.611734 148.564463-61.358082l8.742611-6.758378c18.803605-14.515531 34.451081-25.581959 48.913344-33.811865h-114.552842z"  horiz-adv-x="1665" />

    
    <glyph glyph-name="fenzucopy14" unicode="&#58933;" d="M707.265719 189.299246a158.543339 158.543339 0 0 0 55.825617-25.741224l37.782043-27.753912 13.24137 10.028131V548.016792H706.912616v-358.752856h0.423724z m-156.671892 407.834201h107.237443V648.580584h-107.237443v-51.447137z m0-451.054033l23.304812 17.231436a160.167614 160.167614 0 0 0 83.932631 30.366876V547.981481h-107.237443v-401.902067z m313.237853 32.273633a159.81451 159.81451 0 0 0 107.237443 11.193371V547.981481h-107.237443v-369.734365 0.105931z m0 470.47471v-51.447137h107.237443V648.827757h-107.237443z m-156.671892-51.447137h107.237443V648.827757h-107.237443v-51.447137z m-626.475706 0h107.237444V648.827757H80.825324v-51.447137h-0.141242z m156.671892-436.25901l34.356942-25.705913 37.782043 27.753912a156.42472 156.42472 0 0 0 35.098459 19.314745V547.981481H237.497216v-387.248284l-0.141242 0.388413zM394.063177 597.38062h107.237443V648.827757H394.063177v-51.447137z m-313.237853-414.543163a159.673269 159.673269 0 0 0 107.237443 3.636963V547.981481H80.825324v-365.108713z m313.202542 10.840269h9.957511c34.10977-0.03531 67.301471-10.840268 94.525727-30.719979l2.789516-2.118619V548.016792H394.063177V193.677726zM237.532526 596.992206h107.237443V648.474653H237.497216v-51.447136zM800.873379-127.999294a118.889849 118.889849 0 0 0-70.51471 22.881088l-39.759421 28.954463a38.135146 38.135146 0 0 1-44.844107 0l-39.759421-28.954463a119.913848 119.913848 0 0 0-140.888179 0l-39.759421 28.954463a38.135146 38.135146 0 0 1-44.844107 0l-39.75942-28.954463a119.913848 119.913848 0 0 0-140.888179 0l-39.759421 28.954463a38.135146 38.135146 0 0 1-44.844107 0l-51.411827-37.817354a40.606869 40.606869 0 0 0-55.754996 7.415168 37.852664 37.852664 0 0 0 7.62703 54.0601l51.447137 37.782043a119.913848 119.913848 0 0 0 140.888178 0l39.794731-28.919152a38.135146 38.135146 0 0 1 44.808797 0l39.759421 28.954463a119.913848 119.913848 0 0 0 140.888179 0l39.794731-28.954463a38.135146 38.135146 0 0 1 44.808797 0l39.75942 28.954463a119.913848 119.913848 0 0 0 140.888179 0l39.794731-28.954463a38.135146 38.135146 0 0 1 44.808797 0l39.759421 28.954463a119.913848 119.913848 0 0 0 140.888178 0l39.794732-28.954463c11.299303-8.333236 17.196126-21.892399 15.395299-35.557493-1.765516-13.700404-10.946199-25.423431-24.046328-30.719979a40.78342 40.78342 0 0 0-39.476938 4.802204l-39.759421 28.954463a38.135146 38.135146 0 0 1-44.844107 0l-39.724111-28.954463a118.889849 118.889849 0 0 0-70.267537-22.881088zM794.941245 13.241988a112.533991 112.533991 0 0 0-69.314159 23.834466l-39.088525 30.119704a35.839975 35.839975 0 0 1-44.03197 0l-39.088524-30.119704a112.639922 112.639922 0 0 0-138.522388 0l-39.088524 30.119704a35.839975 35.839975 0 0 1-44.03197 0l-39.088525-30.119704a112.639922 112.639922 0 0 0-138.522387 0l-39.088525 30.119704a35.839975 35.839975 0 0 1-44.031969 0l-48.728243-38.947284a38.417629 38.417629 0 0 0-54.801617 7.69765c-13.064819 17.65516-9.710338 42.866729 7.485788 56.284651L75.564086 131.531562a112.639922 112.639922 0 0 0 138.522387 0l39.088525-30.119704c13.029508-10.063441 31.002461-10.063441 44.031969 0l39.088525 30.119704a112.639922 112.639922 0 0 0 138.487077 0l39.123835-30.119704c13.029508-10.063441 30.967151-10.063441 44.03197 0l39.088525 30.119704a112.639922 112.639922 0 0 0 138.487077 0l39.088524-30.119704c13.064819-10.063441 31.002461-10.063441 44.06728 0l39.088525 30.119704a112.639922 112.639922 0 0 0 138.487077 0l39.088525-30.119704c17.196126-13.417922 20.550607-38.59418 7.485788-56.284651-13.064819-17.65516-37.570181-21.115572-54.766307-7.697649l-39.088525 30.119703a35.839975 35.839975 0 0 1-44.06728 0l-39.088525-30.119703a112.533991 112.533991 0 0 0-70.867813-24.22288zM1005.637927 811.255231V896h-220.3364v-84.744769H261.896647V896h-220.3364v-84.744769H0v-66.913057h1059.309614V811.255231h-53.671687z m-899.07138 0v17.831712h90.182559V811.255231H106.566547z m743.74128 0v17.831712h90.041318V811.255231h-90.041318z"  horiz-adv-x="1059" />

    
    <glyph glyph-name="Mask" unicode="&#58934;" d="M0 896m53.268004 0l1225.164086 0q53.268004 0 53.268003-53.268004l0-712.45955q0-53.268004-53.268003-53.268003l-1225.164086 0q-53.268004 0-53.268004 53.268003l0 712.45955q0 53.268004 53.268004 53.268004ZM1331.700093 505.438997v-85.754828C1274.197283 471.200987 1224.25853 496.489972 1183.002461 496.489972c-31.601243 0-47.828009-9.514997-77.944407-40.683438-1.265115-1.311725-8.003518-8.323126-9.974433-10.360627-47.95452-49.519268-88.078644-71.305881-159.337916-71.305881-65.05355 0-106.895566 17.045761-175.61795 60.792109l-8.789221 5.606458C685.738988 482.360634 650.901713 496.489972 592.606542 496.489972c-55.45865 0-76.90568-12.091837-108.333803-49.346147l-5.180313-6.17243c-39.944344-47.528376-71.512295-66.831369-134.981122-66.831369-64.7406 0-104.272117 19.243066-167.567823 68.11646l-8.689343 6.711768C121.763998 484.478037 97.234082 496.489972 59.926504 496.489972c-21.526932 0-41.462482-3.529005-59.926504-10.733503v69.907597c18.956751 4.92729 38.945569 7.410911 59.926504 7.410911 55.811551 0 91.78077-17.611734 148.564463-61.364741l8.742611-6.751719c52.628788-40.636828 80.567856-54.233486 126.877726-54.233486 40.497 0 55.511918 9.182072 84.003642 43.080498l5.260215 6.265649C476.468976 541.16851 515.341302 563.074977 592.606542 563.074977c73.935989 0 119.160524-18.33751 194.528091-66.398567l8.749269-5.579823c58.941046-37.52065 90.489021-50.371556 139.855144-50.371556 50.471434 0 74.961398 13.303684 111.509907 51.044064 1.857722 1.917648 8.556173 8.889098 9.921166 10.3007 41.449165 42.900719 72.331291 61.005181 125.832342 61.005182 46.762649 0 96.13543-19.376236 148.697632-57.63598zM1331.700093 314.393301v-85.754827c-57.50281 51.516818-107.441564 76.805803-148.697632 76.805803-31.601243 0-47.828009-9.514997-77.944407-40.683438-1.265115-1.311725-8.003518-8.323126-9.974433-10.360627-47.95452-49.512609-88.078644-71.305881-159.337916-71.305881-65.05355 0-106.895566 17.045761-175.61795 60.792109l-8.789221 5.606457c-65.599547 41.822041-100.436821 55.951379-158.731992 55.95138-55.45865 0-76.90568-12.091837-108.333803-49.346147l-5.180313-6.17243c-39.944344-47.521718-71.512295-66.831369-134.981122-66.831369-64.7406 0-104.272117 19.243066-167.567823 68.116459l-8.689343 6.711769c-46.09014 35.516441-70.620056 47.521718-107.927634 47.521718-21.526932 0-41.462482-3.529005-59.926504-10.733503v69.907596c18.956751 4.92729 38.945569 7.410911 59.926504 7.410911 55.811551 0 91.78077-17.611734 148.564463-61.358082l8.742611-6.758377c52.628788-40.636828 80.567856-54.233486 126.877726-54.233487 40.497 0 55.511918 9.182072 84.003642 43.080498-0.379535-0.439461 4.028393 4.814096 5.260215 6.272308 43.093815 51.090674 81.966141 72.997141 159.231381 72.99714 73.935989 0 119.160524-18.33751 194.528091-66.391908-0.213072 0.13317 6.79167-4.341342 8.749269-5.579823 58.941046-37.527309 90.489021-50.378215 139.855144-50.378215 50.471434 0 74.961398 13.303684 111.509907 51.044065 1.857722 1.917648 8.556173 8.889098 9.921166 10.307359 41.449165 42.900719 72.331291 60.998523 125.832342 60.998522 46.762649 0 96.13543-19.376236 148.697632-57.63598zM1331.700093 77.004443h-52.888469c-35.716197 23.657652-67.770218 35.34332-95.809163 35.34332-29.723546 0-45.843776-8.409686-72.710825-35.34332h-97.879957c11.219573 7.6373 22.319294 17.698294 34.837274 30.629102 1.857722 1.91099 8.556173 8.88244 9.921166 10.3007 41.449165 42.900719 72.331291 60.998523 125.832342 60.998523 46.762649 0 96.13543-19.376236 148.697632-57.63598V77.004443z m-614.220034 0c-45.55746 25.994786-77.458336 35.34332-124.873517 35.34332-47.814692 0-70.353716-8.988976-95.795847-35.34332h-89.929707c6.591915 5.90609 13.403561 13.350293 21.233958 22.665535-0.379535-0.44612 4.028393 4.807437 5.260215 6.258991 43.093815 51.097333 81.966141 73.003799 159.231381 73.003799 73.935989 0 119.160524-18.33751 194.528091-66.391908-0.213072 0.13317 6.79167-4.341342 8.749269-5.579824 19.842331-12.631175 36.575143-22.465781 51.936304-29.956593h-130.340147z m-565.885979 0c-36.129024 26.134614-58.994314 35.34332-91.667576 35.34332-21.526932 0-41.462482-3.529005-59.926504-10.733503v69.907597c18.956751 4.92729 38.945569 7.410911 59.926504 7.410911 55.811551 0 91.78077-17.611734 148.564463-61.358082l8.742611-6.758378c18.803605-14.515531 34.451081-25.581959 48.913344-33.811865H151.59408z"  horiz-adv-x="1665" />

    
    <glyph glyph-name="MaskCopy5" unicode="&#58935;" d="M0 896m53.268004 0l1225.164086 0q53.268004 0 53.268003-53.268004l0-712.45955q0-53.268004-53.268003-53.268003l-1225.164086 0q-53.268004 0-53.268004 53.268003l0 712.45955q0 53.268004 53.268004 53.268004ZM1331.700093 505.438997v-85.754828C1274.197283 471.200987 1224.25853 496.489972 1183.002461 496.489972c-31.601243 0-47.828009-9.514997-77.944407-40.683438-1.265115-1.311725-8.003518-8.323126-9.974433-10.360627-47.95452-49.519268-88.078644-71.305881-159.337916-71.305881-65.05355 0-106.895566 17.045761-175.61795 60.792109l-8.789221 5.606458C685.738988 482.360634 650.901713 496.489972 592.606542 496.489972c-55.465309 0-76.90568-12.091837-108.333803-49.346147l-5.180313-6.17243c-39.944344-47.528376-71.512295-66.831369-134.981122-66.831369-64.7406 0-104.272117 19.243066-167.567823 68.11646l-8.689343 6.711768C121.763998 484.478037 97.234082 496.489972 59.926504 496.489972c-21.526932 0-41.462482-3.529005-59.926504-10.733503v69.907597c18.956751 4.92729 38.945569 7.410911 59.926504 7.410911 55.811551 0 91.78077-17.611734 148.564463-61.364741l8.742611-6.751719c52.628788-40.636828 80.567856-54.233486 126.877726-54.233486 40.497 0 55.511918 9.182072 84.003642 43.080498l5.260215 6.265649C476.468976 541.16851 515.341302 563.074977 592.606542 563.074977c73.935989 0 119.160524-18.33751 194.528091-66.398567l8.749269-5.579823c58.941046-37.52065 90.489021-50.371556 139.855144-50.371556 50.471434 0 74.961398 13.303684 111.509907 51.044064 1.857722 1.917648 8.556173 8.889098 9.921166 10.3007 41.449165 42.900719 72.331291 61.005181 125.832342 61.005182 46.762649 0 96.13543-19.376236 148.697632-57.63598zM1331.700093 314.393301v-85.754827c-57.50281 51.516818-107.441564 76.805803-148.697632 76.805803-31.601243 0-47.828009-9.514997-77.944407-40.683438-1.265115-1.311725-8.003518-8.323126-9.974433-10.360627-47.95452-49.512609-88.078644-71.305881-159.337916-71.305881-65.05355 0-106.895566 17.045761-175.61795 60.792109l-8.789221 5.606457c-65.599547 41.822041-100.436821 55.951379-158.731992 55.95138-55.465309 0-76.90568-12.091837-108.333803-49.346147l-5.180313-6.17243c-39.944344-47.521718-71.512295-66.831369-134.981122-66.831369-64.7406 0-104.272117 19.243066-167.567823 68.116459l-8.689343 6.711769c-46.09014 35.516441-70.620056 47.521718-107.927634 47.521718-21.526932 0-41.462482-3.529005-59.926504-10.733503v69.907596c18.956751 4.92729 38.945569 7.410911 59.926504 7.410911 55.811551 0 91.78077-17.611734 148.564463-61.358082l8.742611-6.758377c52.628788-40.636828 80.567856-54.233486 126.877726-54.233487 40.497 0 55.511918 9.182072 84.003642 43.080498-0.379535-0.439461 4.028393 4.814096 5.260215 6.272308 43.093815 51.090674 81.966141 72.997141 159.231381 72.99714 73.935989 0 119.160524-18.33751 194.528091-66.391908-0.213072 0.13317 6.79167-4.341342 8.749269-5.579823 58.941046-37.527309 90.489021-50.378215 139.855144-50.378215 50.471434 0 74.961398 13.303684 111.509907 51.044065 1.857722 1.917648 8.556173 8.889098 9.921166 10.307359 41.449165 42.900719 72.331291 60.998523 125.832342 60.998522 46.762649 0 96.13543-19.376236 148.697632-57.63598zM1331.700093 77.004443h-52.888469c-35.716197 23.657652-67.770218 35.34332-95.809163 35.34332-29.723546 0-45.843776-8.409686-72.710825-35.34332h-97.879957c11.219573 7.6373 22.319294 17.698294 34.837274 30.629102 1.857722 1.91099 8.556173 8.88244 9.921166 10.3007 41.449165 42.900719 72.331291 60.998523 125.832342 60.998523 46.762649 0 96.13543-19.376236 148.697632-57.63598V77.004443z m-614.220034 0c-45.55746 25.994786-77.458336 35.34332-124.873517 35.34332-47.814692 0-70.353716-8.988976-95.795847-35.34332h-89.929707c6.591915 5.90609 13.403561 13.350293 21.233958 22.665535-0.379535-0.44612 4.028393 4.807437 5.260215 6.258991 43.093815 51.097333 81.966141 73.003799 159.231381 73.003799 73.935989 0 119.160524-18.33751 194.528091-66.391908-0.213072 0.13317 6.79167-4.341342 8.749269-5.579824 19.842331-12.631175 36.575143-22.465781 51.936304-29.956593h-130.340147z m-565.885979 0c-36.129024 26.134614-58.994314 35.34332-91.667576 35.34332-21.526932 0-41.462482-3.529005-59.926504-10.733503v69.907597c18.956751 4.92729 38.945569 7.410911 59.926504 7.410911 55.811551 0 91.78077-17.611734 148.564463-61.358082l8.742611-6.758378c18.803605-14.515531 34.451081-25.581959 48.913344-33.811865h-114.552842z"  horiz-adv-x="1665" />

    
    <glyph glyph-name="fenzucopy15" unicode="&#58936;" d="M952.88019 462.042213C953.02241 670.366026 802.525237 849.335637 594.485864 888.303909 386.36116 927.27218 179.544879 815.1744 101.864331 621.357024c-77.680548-193.788932-4.266599-414.54277 174.845232-525.730343a293.542019 293.542019 0 0 1-66.302951-185.369509c0-21.133888 17.407724-38.257172 38.88294-38.257172h525.133019c21.50366 0 38.911384 17.123284 38.911384 38.257172a293.542019 293.542019 0 0 1-66.331394 185.369509c127.997973 79.301855 205.678521 217.624999 205.849185 366.415532z m-289.360752-258.01547a202.521238 202.521238 0 0 0-147.823437-63.742991 202.521238 202.521238 0 0 0-147.823437 63.714547 37.830512 37.830512 0 0 0-10.808718 38.45628c3.982159 13.795337 15.501977 24.234283 29.809306 27.021794a39.252712 39.252712 0 0 0 38.058064-13.738449 123.731374 123.731374 0 0 1 90.508789-39.16738c34.417233 0 67.241602 14.221997 90.508789 39.16738 9.386518 10.097618 23.551627 14.506437 37.147856 11.576706 13.596229-2.929731 24.575611-12.799797 28.785322-25.855591 4.209711-13.055793 1.023984-27.306234-8.362534-37.432296zM526.220279 327.103905a199.107959 199.107959 0 1 0 199.107958 199.051071A199.307067 199.307067 0 0 0 526.220279 327.103905zM639.996255 526.211864a113.775976 113.775976 0 1 0-227.551953 0 113.775976 113.775976 0 0 0 227.551953 0z"  horiz-adv-x="1024" />

    
    <glyph glyph-name="hebingxingzhuang" unicode="&#58937;" d="M512 896c282.763636 0 512-229.236364 512-512S794.763636-128 512-128 0 101.236364 0 384 229.236364 896 512 896z m49.233455-770.106182c13.870545 14.685091 20.701091 32.616727 20.584727 53.527273 0 20.805818-6.818909 38.853818-20.584727 53.922909C547.490909 248.401455 530.978909 256 512 256c-18.990545 0-35.479273-7.598545-49.233455-22.656C449.000727 218.274909 442.181818 200.226909 442.181818 179.432727c0-21.038545 6.818909-38.725818 20.584727-53.538909 10.565818-11.205818 22.621091-18.176 36.270546-20.794182a222.336 222.336 0 0 1 25.925818 0c13.533091 2.618182 25.693091 9.460364 36.270546 20.794182zM479.709091 325.818182h65.605818C554.530909 427.403636 581.818182 567.04 581.818182 586.077091c0 22.120727-6.481455 40.436364-19.549091 55.191273C549.061818 655.895273 532.363636 663.272727 512 663.272727c-20.468364 0-37.073455-7.493818-50.269091-22.365091-13.067636-14.743273-19.549091-33.058909-19.549091-54.830545C442.181818 567.04 471.738182 427.403636 479.709091 325.818182z"  horiz-adv-x="1024" />

    
    <glyph glyph-name="hebingxingzhuang1" unicode="&#58938;" d="M85.333333 896h853.333334a85.333333 85.333333 0 0 0 85.333333-85.333333v-853.333334a85.333333 85.333333 0 0 0-85.333333-85.333333H85.333333a85.333333 85.333333 0 0 0-85.333333 85.333333V810.666667a85.333333 85.333333 0 0 0 85.333333 85.333333z m402.581334-789.12l216.192 327.338667-149.909334-5.824 35.818667 233.130666-269.909333-327.338666 167.808 5.824v-233.152z"  horiz-adv-x="1024" />

    
    </font>
</defs>
</svg>
